<?xml version="1.0" standalone="no"?>
<!DOCTYPE svg PUBLIC "-//W3C//DTD SVG 20010904//EN"
 "http://www.w3.org/TR/2001/REC-SVG-20010904/DTD/svg10.dtd">
<svg version="1.0" xmlns="http://www.w3.org/2000/svg"
 width="1700.000000pt" height="1700.000000pt" viewBox="0 0 1700.000000 1700.000000"
 preserveAspectRatio="xMidYMid meet">
<metadata>
Created by potrace 1.14, written by Peter Selinger 2001-2017
</metadata>
<g transform="translate(0.000000,1700.000000) scale(0.100000,-0.100000)"
fill="#000000" stroke="none">
<path d="M8550 14487 c-3 -2 -54 -7 -115 -11 -127 -7 -243 -20 -370 -41 -49
-8 -94 -15 -99 -15 -6 0 -6 -4 0 -10 10 -10 157 -24 364 -35 63 -3 151 -8 195
-10 178 -11 376 -16 905 -20 305 -3 599 -7 653 -10 53 -2 97 0 97 4 0 15 -232
71 -390 95 -52 8 -196 24 -270 31 -36 3 -85 8 -110 11 -61 7 -854 17 -860 11z"/>
<path d="M7585 14346 c-267 -60 -511 -155 -840 -329 -131 -69 -135 -73 -192
-161 -55 -86 -117 -145 -260 -251 -124 -93 -205 -170 -276 -263 -55 -71 -130
-192 -124 -198 6 -7 173 51 354 122 146 58 168 64 230 63 57 -1 83 5 144 30
118 51 231 115 342 196 196 142 398 212 938 324 274 57 732 169 1064 261 275
76 334 82 495 47 107 -24 332 -59 460 -72 66 -6 213 -24 255 -30 97 -13 199
-25 263 -30 244 -18 252 -20 252 -61 0 -20 -4 -24 -22 -19 -27 6 -295 40 -428
55 -475 53 -540 58 -765 54 -121 -1 -240 -5 -265 -8 -45 -6 -245 -33 -310 -42
-330 -46 -519 -104 -1260 -384 -164 -61 -470 -209 -470 -226 0 -9 64 -13 273
-14 149 -1 285 -3 301 -5 16 -2 81 -6 145 -10 64 -3 127 -8 141 -10 14 -2 72
-7 130 -11 134 -8 151 -1 264 107 101 97 138 123 215 154 84 35 505 138 651
160 170 25 306 44 360 50 36 4 73 9 84 11 26 5 226 13 446 19 102 3 291 8 421
11 242 7 289 4 289 -20 0 -10 -46 -13 -232 -14 -279 0 -264 0 -252 -11 24 -23
425 -34 619 -17 86 7 102 6 113 -7 12 -14 8 -17 -25 -26 -22 -6 -54 -14 -72
-17 -41 -8 -35 -12 89 -54 123 -41 252 -50 363 -26 70 16 80 16 139 1 137 -35
391 -203 537 -354 77 -79 171 -194 171 -208 0 -6 -19 -15 -42 -21 -116 -29
-761 -172 -813 -181 -101 -16 -256 -5 -590 43 -176 25 -346 47 -377 49 -100 6
-180 -10 -388 -81 -289 -98 -313 -108 -525 -215 -251 -127 -370 -157 -433
-110 -39 29 -50 56 -57 149 -6 66 -4 89 9 115 9 18 16 56 16 87 0 43 7 68 36
122 61 117 159 201 389 335 55 32 129 79 165 104 98 70 130 87 264 135 167 60
276 86 379 90 48 2 90 6 93 9 14 13 -202 59 -278 59 -81 0 -106 -7 -264 -72
-252 -105 -402 -150 -729 -221 -55 -11 -156 -41 -225 -65 -202 -72 -511 -147
-595 -145 -63 1 -77 -2 -135 -34 -257 -140 -354 -178 -645 -246 -115 -27 -331
-81 -480 -118 -148 -38 -288 -72 -310 -75 -97 -14 -353 -46 -495 -61 -276 -29
-356 -45 -475 -94 -49 -21 -121 -48 -160 -60 -108 -35 -389 -154 -398 -168 -3
-5 68 -9 156 -10 181 -1 308 -20 420 -60 39 -14 81 -25 92 -25 12 0 160 45
328 101 l307 102 347 1 c438 1 492 -8 708 -114 97 -48 102 -50 170 -45 39 2
97 14 130 26 71 26 184 38 211 23 16 -9 8 -16 -61 -47 -111 -51 -186 -69 -287
-69 -76 0 -91 3 -115 22 -127 103 -248 150 -408 160 -144 8 -588 8 -665 0 -99
-12 -199 -40 -380 -108 -90 -34 -171 -65 -179 -70 -27 -15 51 -23 161 -16 57
3 150 8 208 12 58 3 119 10 137 15 86 27 220 9 572 -77 347 -85 486 -104 691
-99 141 4 223 20 360 69 38 14 120 32 182 41 225 31 248 38 468 144 80 38 166
109 213 175 15 20 26 7 178 -211 l57 -81 -44 -17 c-71 -27 -78 -46 -88 -246
-5 -94 -13 -122 -51 -177 -32 -47 -33 -118 -4 -204 32 -94 53 -130 106 -185
142 -147 336 -187 497 -101 56 30 205 76 227 71 10 -3 30 -20 44 -38 l25 -34
-52 -45 c-71 -61 -375 -258 -466 -302 -73 -36 -134 -45 -222 -34 -30 4 -35 2
-38 -17 -2 -16 9 -29 43 -53 86 -59 139 -163 131 -260 -2 -25 -4 -68 -5 -97
-1 -48 -3 -52 -33 -62 -83 -29 -133 -105 -199 -304 -49 -144 -36 -237 44 -319
54 -56 141 -110 301 -187 164 -79 239 -127 456 -296 154 -119 193 -161 169
-176 -8 -5 -20 -9 -26 -9 -16 0 -16 -4 2 -64 20 -65 25 -144 13 -203 -27 -135
-3 -289 61 -398 51 -87 503 -667 705 -905 16 -19 93 -98 171 -175 152 -152
250 -226 441 -335 l123 -71 -33 -52 c-41 -64 -66 -135 -66 -186 0 -55 23 -112
90 -226 60 -103 70 -130 255 -675 45 -135 97 -281 115 -324 81 -195 234 -353
460 -475 172 -92 289 -94 555 -7 262 85 534 166 560 166 l23 0 -14 -60 c-23
-99 -73 -181 -181 -297 -88 -93 -307 -326 -380 -403 -39 -41 -81 -86 -93 -100
-12 -14 -60 -64 -107 -113 -47 -48 -83 -90 -80 -94 14 -13 88 19 140 62 30 24
81 60 113 79 33 19 77 52 99 73 31 29 207 218 280 299 6 6 60 65 121 130 228
245 247 270 339 454 56 112 108 183 207 284 150 152 296 358 465 656 98 172
107 209 104 395 -5 236 -4 266 13 325 14 47 16 105 13 380 l-3 325 29 140 c51
250 41 370 -55 645 -77 223 -83 259 -93 550 -6 155 -3 167 113 540 64 205 67
220 67 315 0 93 -2 105 -33 165 -17 36 -53 88 -78 115 -57 63 -96 142 -133
275 -43 152 -51 201 -56 335 -8 227 -47 329 -282 741 -91 160 -138 257 -224
459 -4 11 -30 88 -58 170 -113 343 -183 470 -351 635 -242 239 -521 353 -886
364 -99 2 -137 7 -154 19 -12 9 -58 58 -102 109 -140 164 -268 271 -467 387
-232 136 -391 211 -448 211 -11 0 -28 9 -39 21 -22 24 -51 41 -151 85 -40 17
-130 63 -200 102 -224 123 -429 185 -681 207 -37 4 -80 9 -97 12 -16 2 -307 6
-645 8 -575 3 -889 9 -1034 20 -126 9 -214 15 -331 20 -66 4 -133 8 -150 11
-16 2 -106 6 -200 9 -155 5 -180 3 -280 -19z m3376 -328 c46 -13 51 -28 9 -28
-43 0 -37 -12 18 -40 l47 -25 -33 -3 c-18 -2 -54 4 -81 13 -63 21 -158 81
-140 88 26 10 141 7 180 -5z m307 -157 c3 -10 -4 -11 -29 -6 -59 11 -69 16
-69 30 0 10 9 11 47 1 26 -7 49 -18 51 -25z m102 -98 c8 -8 -25 -23 -51 -23
-20 0 -69 31 -69 44 0 4 114 -15 120 -21z m1397 -687 c169 -36 357 -112 495
-202 90 -58 218 -186 281 -281 62 -94 93 -163 192 -433 141 -384 196 -506 323
-717 197 -329 250 -469 253 -678 3 -202 67 -431 164 -587 55 -88 57 -93 50
-142 -10 -77 -33 -152 -78 -248 -41 -91 -69 -113 -80 -65 -29 125 -122 470
-145 537 -66 193 -153 377 -235 500 -63 95 -280 365 -429 535 -62 72 -154 189
-202 260 -94 137 -207 297 -216 305 -3 3 -21 27 -39 54 -70 105 -142 272 -226
522 -70 206 -110 276 -317 543 -50 63 -73 101 -65 104 27 11 210 6 274 -7z
m-335 -33 c11 -10 63 -74 116 -143 53 -69 99 -127 102 -130 15 -12 88 -129
109 -175 13 -27 45 -116 72 -197 27 -80 62 -182 79 -225 63 -158 180 -353 307
-510 32 -40 67 -89 78 -110 48 -92 140 -209 335 -430 58 -65 121 -138 140
-162 19 -23 43 -53 53 -64 18 -21 102 -142 122 -175 6 -10 26 -44 47 -77 88
-145 185 -408 254 -690 14 -55 39 -147 55 -204 25 -84 28 -106 17 -113 -107
-70 -287 -168 -421 -230 -176 -80 -257 -127 -417 -237 -508 -352 -672 -638
-725 -1271 -16 -181 -71 -379 -156 -557 -60 -126 -147 -220 -251 -271 -110
-54 -116 -53 -184 16 -33 34 -77 69 -99 78 -58 25 -168 21 -290 -10 -55 -14
-110 -26 -124 -26 -43 0 -273 134 -401 233 -117 91 -318 299 -460 476 -19 24
-45 56 -58 72 -130 160 -516 675 -536 715 -28 57 -44 134 -29 134 6 0 36 -11
67 -25 47 -21 72 -25 152 -25 108 0 146 -14 207 -75 27 -27 39 -50 48 -93 24
-109 67 -168 154 -208 100 -46 272 -55 406 -20 98 26 289 106 524 221 253 124
297 187 311 438 7 130 -1 144 -128 223 -181 112 -351 179 -483 190 -108 9
-257 74 -386 168 -36 27 -49 44 -59 79 -18 67 -40 82 -115 81 -68 -2 -130 -18
-157 -42 -31 -27 -22 -57 33 -102 31 -27 52 -53 56 -71 3 -18 18 -36 39 -49
27 -15 33 -25 30 -42 -29 -142 -20 -359 20 -463 4 -11 0 -15 -15 -15 -29 0
-91 -33 -117 -62 -25 -28 -45 -64 -79 -142 -27 -62 -27 -62 -74 -18 -7 7 -32
23 -55 35 -35 18 -58 22 -151 22 -124 1 -146 9 -209 74 l-39 40 5 85 c4 63 12
95 28 123 27 45 23 101 -12 189 -21 54 -31 65 -143 152 -192 149 -307 223
-512 327 -217 111 -275 151 -316 217 -49 80 -39 148 53 358 29 65 83 140 101
140 5 0 18 -15 30 -32 16 -27 19 -43 14 -83 -12 -99 -5 -119 42 -128 31 -6
112 16 156 43 17 11 77 64 134 120 109 107 133 118 181 84 50 -35 64 -99 37
-175 -18 -50 -13 -86 13 -91 56 -13 108 69 99 157 -15 149 -114 248 -233 231
-61 -8 -84 -21 -203 -120 -58 -47 -108 -86 -112 -86 -9 0 -56 70 -68 101 -5
15 -9 85 -8 155 2 122 1 132 -26 189 -15 33 -35 67 -43 77 -20 21 -12 34 23
43 57 14 163 72 303 165 80 53 177 114 215 135 136 75 173 150 106 218 -58 59
-168 50 -329 -30 -105 -52 -171 -61 -256 -36 -156 46 -291 208 -303 367 -5 62
-4 66 25 95 55 55 102 41 274 -81 116 -82 146 -91 182 -55 75 75 -14 154 -246
218 -79 21 -148 46 -154 54 -11 14 -10 124 1 191 7 41 36 67 67 59 26 -7 89
-54 158 -119 66 -62 96 -79 125 -72 30 8 48 47 40 86 -9 40 -61 87 -197 180
-125 86 -168 124 -194 172 l-14 26 53 7 c131 17 226 52 395 145 130 72 251
120 523 211 245 82 297 88 509 58 74 -11 205 -28 290 -39 85 -11 171 -22 190
-25 99 -14 273 -17 350 -6 47 6 254 52 460 101 389 93 433 99 472 63z m-3441
-170 c-19 -37 -126 -134 -205 -187 -145 -98 -327 -174 -473 -200 -55 -9 -37
12 25 29 187 52 237 78 470 248 96 70 178 127 183 127 6 0 6 -7 0 -17z m536
-710 c12 -18 12 -21 -1 -26 -10 -4 -22 6 -35 29 -12 19 -21 38 -21 41 0 10 43
-23 57 -44z m23 -371 c-24 -4 -50 20 -50 45 0 9 13 4 37 -14 35 -27 36 -28 13
-31z m116 -1387 c-48 -58 -113 -96 -166 -97 -22 0 -43 2 -46 4 -2 3 26 17 63
31 38 15 93 47 123 72 29 24 56 42 58 40 3 -3 -12 -25 -32 -50z m4938 -531 c0
-107 -1 -113 -61 -285 -54 -155 -91 -248 -93 -227 0 4 -14 55 -31 113 -32 114
-32 135 8 175 37 37 67 94 103 195 49 139 52 146 64 142 7 -3 11 -41 10 -113z
m-3714 -239 l23 -25 -71 0 c-40 0 -72 3 -72 8 0 12 53 41 76 42 11 0 31 -11
44 -25z m3462 -137 c30 -72 58 -213 58 -292 0 -28 -9 -112 -20 -186 -15 -106
-18 -181 -16 -345 3 -198 1 -213 -19 -260 -47 -106 -59 -165 -59 -295 -1 -69
2 -148 7 -176 l7 -51 -184 -120 c-301 -197 -574 -398 -746 -548 -62 -54 -190
-178 -289 -279 -120 -123 -163 -149 -240 -148 -31 0 -75 5 -96 11 -58 15 -183
33 -315 46 -115 12 -142 22 -183 72 -18 21 -18 21 82 77 55 31 122 74 150 96
95 76 168 196 235 389 55 157 69 226 91 446 25 251 34 300 75 424 81 249 215
443 430 623 123 103 228 168 610 378 173 96 329 181 345 191 17 10 35 16 40
15 6 -1 22 -32 37 -68z m-3312 -25 c0 -17 -5 -16 -40 2 -30 15 -36 26 -24 38
10 9 64 -25 64 -40z m90 -125 c190 -70 422 -128 542 -135 l96 -6 65 -59 c99
-89 132 -154 98 -194 -20 -25 -83 -73 -134 -102 -65 -37 -225 -102 -251 -102
-37 0 -379 76 -451 100 -76 25 -127 66 -157 127 -21 44 -23 62 -24 203 -1 85
1 176 3 202 l5 47 36 -15 c21 -9 98 -38 172 -66z m-237 -499 c44 -34 67 -129
67 -276 l0 -124 -97 52 c-131 70 -131 70 -143 99 -22 53 30 193 90 244 38 31
49 32 83 5z m1070 -11 c-22 -122 -133 -206 -423 -321 -144 -57 -243 -76 -383
-74 -133 2 -137 6 -138 116 0 42 -2 114 -3 159 l-3 84 36 -7 c20 -3 119 -26
221 -51 284 -69 331 -65 548 56 70 38 132 70 139 70 9 0 11 -10 6 -32z m2502
-200 c20 -70 10 -127 -17 -100 -16 16 -24 152 -9 152 6 0 17 -24 26 -52z
m-3732 -134 c3 -3 68 -34 143 -69 76 -34 140 -67 142 -74 5 -14 -84 -15 -141
0 -58 15 -115 56 -144 107 -14 23 -21 42 -16 42 5 0 12 -3 16 -6z m3807 -73
c69 -257 83 -378 56 -498 -9 -40 -23 -106 -32 -145 -12 -52 -16 -113 -14 -213
4 -192 0 -518 -5 -524 -3 -2 -7 -2 -10 0 -5 6 -39 207 -50 294 -27 223 -58
382 -107 545 -25 84 -32 122 -31 192 1 96 28 204 70 275 26 45 89 113 104 113
4 0 13 -18 19 -39z m-179 -682 c15 -59 54 -275 74 -409 2 -14 8 -56 14 -95 35
-232 45 -355 34 -405 -6 -25 -31 -119 -55 -210 -25 -91 -65 -237 -88 -325 -23
-88 -47 -165 -53 -171 -36 -35 -111 -43 -432 -51 -645 -14 -821 -10 -960 22
-191 45 -338 105 -415 171 -163 140 -256 267 -309 421 -25 75 -27 100 -17 176
l9 59 41 -41 c65 -64 120 -83 271 -96 95 -8 198 -24 269 -42 33 -8 83 -14 113
-14 88 0 135 29 300 191 272 266 436 406 668 572 218 155 502 334 513 323 2
-2 13 -36 23 -76z m-2373 -627 c14 -1 22 -8 22 -21 0 -28 -23 -43 -51 -32 -16
6 -39 4 -72 -7 -44 -14 -51 -14 -82 1 -31 15 -47 36 -27 37 4 1 29 7 55 14 43
11 85 13 155 8z m-231 -117 c35 -15 35 -16 19 -37 -35 -48 -59 -115 -84 -234
-14 -68 -29 -124 -32 -124 -16 0 -90 167 -94 212 -6 65 17 148 49 176 31 26
88 29 142 7z m263 -130 c-7 -136 -3 -271 10 -325 7 -30 33 -108 57 -174 24
-65 42 -120 40 -122 -10 -10 -78 29 -96 55 -38 52 -81 156 -96 229 -33 157 14
421 72 410 14 -2 16 -15 13 -73z m-142 36 c7 -20 6 -44 -2 -82 -21 -87 -19
-205 3 -310 11 -51 23 -103 27 -113 7 -19 7 -19 -26 0 -18 10 -60 44 -93 74
l-59 54 5 56 c12 114 46 262 72 306 31 52 58 58 73 15z m209 -176 c12 -8 27
-32 33 -53 70 -225 297 -473 507 -552 88 -34 265 -76 388 -94 138 -20 218 -21
759 -11 l439 8 -78 -99 c-76 -96 -159 -197 -180 -220 -21 -22 -61 -43 -95 -49
-19 -3 -51 -16 -70 -29 -93 -60 -262 -113 -395 -123 l-70 -5 -85 57 c-169 113
-460 291 -712 435 -262 150 -303 178 -331 221 -8 13 -43 103 -77 199 -48 136
-63 192 -67 253 -6 80 -2 87 34 62z m2439 -67 c-3 -13 -11 -49 -18 -80 -9 -46
-16 -58 -31 -58 -13 0 -17 5 -13 18 2 9 12 45 22 80 11 40 22 62 31 62 11 0
14 -7 9 -22z m-69 -228 c-17 -28 -29 -25 -15 5 6 13 15 22 19 19 5 -3 3 -14
-4 -24z m-2587 -94 c105 -77 147 -118 194 -188 18 -26 63 -80 101 -120 39 -41
86 -94 105 -117 47 -59 184 -178 267 -233 156 -104 350 -187 556 -238 119 -30
139 -32 263 -28 91 2 134 0 134 -7 0 -18 -82 -91 -125 -113 -58 -29 -494 -169
-582 -187 -49 -10 -95 -13 -132 -9 -169 19 -398 163 -532 334 -51 65 -85 127
-126 232 -60 156 -250 732 -246 745 6 15 5 16 123 -71z m572 -364 c85 -43 179
-95 211 -115 32 -20 59 -37 62 -37 7 0 298 -185 400 -254 l90 -61 -39 -3 c-73
-6 -242 46 -389 119 -202 102 -405 258 -481 373 -28 41 -32 56 -17 56 6 0 79
-35 163 -78z"/>
<path d="M9161 14154 c-59 -16 -146 -52 -140 -58 2 -2 49 2 104 9 55 7 127 16
160 19 33 4 78 9 100 13 l40 6 -30 13 c-40 17 -167 16 -234 -2z"/>
<path d="M3420 14043 c-94 -36 -141 -168 -82 -233 51 -58 192 -58 245 0 87 96
-41 279 -163 233z"/>
<path d="M6497 13960 c-65 -25 -93 -48 -238 -192 -154 -154 -252 -230 -449
-350 -85 -52 -209 -130 -275 -173 -226 -147 -323 -204 -471 -275 -489 -234
-626 -319 -782 -480 -71 -73 -167 -213 -234 -341 l-46 -86 44 -41 c38 -35 44
-47 44 -81 0 -31 -7 -49 -31 -76 -38 -43 -63 -44 -117 -5 -23 17 -45 30 -50
30 -22 0 -94 -137 -138 -265 -49 -140 -121 -527 -112 -600 3 -30 5 -27 146
230 110 201 125 229 159 309 60 141 132 279 176 338 23 31 101 118 172 194 72
75 131 140 133 143 1 4 -8 13 -22 20 -30 17 -46 52 -53 117 l-5 50 39 12 c90
27 121 15 159 -60 l19 -37 216 162 c118 89 289 217 380 283 208 154 306 239
444 382 131 136 177 173 355 282 159 97 224 144 304 219 84 81 300 311 290
311 -5 -1 -31 -9 -57 -20z"/>
<path d="M8005 13865 c-124 -23 -234 -50 -535 -136 -336 -96 -341 -98 -564
-259 l-118 -85 54 -3 c45 -2 79 6 184 44 71 26 181 73 245 105 156 78 336 152
564 234 250 88 309 112 299 117 -5 2 -63 -6 -129 -17z"/>
<path d="M6451 13814 c-12 -14 -20 -28 -17 -31 6 -6 45 37 46 50 0 12 -5 8
-29 -19z"/>
<path d="M6129 13772 c-63 -31 -196 -110 -296 -175 -100 -64 -222 -136 -270
-158 -149 -68 -138 -60 -135 -100 4 -45 -29 -87 -89 -114 l-42 -19 -43 47 -43
48 -48 -12 c-74 -19 -133 -47 -193 -92 -85 -63 -83 -61 -72 -114 16 -72 -11
-118 -64 -111 -20 2 -33 13 -47 41 -10 20 -23 37 -28 37 -10 0 -204 -191 -344
-340 -50 -53 -119 -126 -154 -163 -98 -104 -64 -91 41 16 55 56 129 118 180
151 48 32 237 130 420 220 200 98 379 193 448 238 251 164 320 207 438 279 67
41 157 100 200 132 133 100 290 247 264 247 -5 0 -60 -26 -123 -58z"/>
<path d="M9650 13815 c-41 -7 -93 -17 -115 -23 -22 -6 -96 -18 -165 -27 -159
-20 -230 -35 -470 -95 -224 -56 -251 -66 -340 -125 -78 -52 -195 -168 -186
-184 5 -7 23 -9 49 -5 97 14 380 89 525 140 88 30 227 69 321 89 167 35 243
58 511 155 156 56 196 79 145 81 -152 6 -210 5 -275 -6z"/>
<path d="M2426 13696 c-90 -29 -97 -33 -81 -46 10 -8 29 -33 43 -55 35 -55
117 -132 148 -138 40 -7 103 13 125 42 17 21 20 35 15 74 -10 89 -67 159 -128
156 -13 -1 -67 -15 -122 -33z"/>
<path d="M5953 13396 c-113 -59 -179 -111 -318 -251 -207 -206 -262 -253 -580
-492 -480 -361 -575 -435 -575 -447 0 -8 332 108 385 134 61 30 90 54 135 114
53 73 89 105 169 151 44 25 115 84 192 158 132 128 201 181 319 247 101 57
123 80 237 247 54 79 104 153 112 164 7 10 12 19 10 19 -2 0 -41 -20 -86 -44z"/>
<path d="M7060 13368 c-97 -9 -172 -23 -410 -78 -119 -27 -138 -34 -160 -60
-20 -24 -45 -36 -133 -60 -120 -34 -170 -56 -219 -99 -18 -15 -82 -49 -143
-75 -60 -25 -123 -57 -140 -70 l-29 -23 44 -54 c47 -57 61 -70 70 -65 3 2 39
7 80 10 41 4 111 11 155 16 44 5 172 19 285 30 279 28 358 42 550 100 91 27
260 69 375 95 427 93 507 116 654 189 79 39 171 92 171 99 0 2 -10 3 -22 4
-86 7 -411 35 -448 39 -86 9 -586 11 -680 2z"/>
<path d="M4205 13345 c-36 -36 -35 -104 3 -146 56 -62 171 -48 206 26 29 60
19 76 -74 119 -70 33 -104 33 -135 1z"/>
<path d="M2588 12929 c-24 -14 -42 -83 -28 -109 15 -27 48 -47 91 -54 29 -4
42 0 69 22 32 27 32 29 21 65 -23 69 -100 107 -153 76z"/>
<path d="M5526 12704 c-99 -78 -144 -120 -137 -127 7 -7 63 11 171 53 127 50
159 66 155 79 -3 9 -13 37 -23 64 l-18 47 -148 -116z"/>
<path d="M1373 12669 c-26 -26 -4 -146 40 -219 65 -110 205 -272 253 -295 21
-10 59 -17 93 -17 123 1 218 -32 301 -106 47 -42 104 -128 115 -174 l7 -27
-67 0 c-60 0 -71 -3 -96 -27 -40 -38 -71 -116 -64 -158 11 -54 42 -96 88 -116
76 -35 136 -21 209 48 25 23 31 24 54 13 22 -10 29 -9 36 1 14 21 -1 88 -32
143 -15 27 -47 93 -70 145 -23 52 -50 113 -60 135 -9 22 -37 85 -61 140 -50
116 -93 169 -147 182 -69 16 -79 9 -87 -58 -4 -32 -11 -59 -15 -59 -28 0 -119
123 -190 258 -18 34 -52 80 -76 101 -76 71 -202 120 -231 90z"/>
<path d="M5348 12642 c-33 -24 -50 -52 -32 -52 11 0 84 62 84 71 0 15 -13 10
-52 -19z"/>
<path d="M5135 12538 c-22 -16 -47 -33 -55 -38 -10 -6 -12 -12 -5 -19 7 -7 26
0 60 25 28 19 51 39 53 44 7 20 -16 15 -53 -12z"/>
<path d="M5236 12404 c-113 -21 -147 -39 -286 -155 -118 -98 -350 -321 -416
-399 -16 -20 -87 -105 -158 -190 -123 -147 -180 -207 -309 -327 -31 -28 -67
-74 -81 -101 -35 -69 -126 -178 -249 -299 l-104 -103 -26 28 c-34 35 -34 53
-2 246 46 277 77 419 125 576 31 100 64 158 304 534 123 193 128 203 99 188
-39 -21 -294 -350 -406 -524 -31 -47 -92 -151 -137 -230 -132 -232 -317 -458
-375 -458 -15 0 -71 14 -123 30 -161 52 -262 46 -344 -20 l-39 -32 -84 71
c-65 55 -162 165 -221 250 -2 1 -7 1 -12 0 -5 -2 3 -44 19 -93 38 -117 38
-150 -1 -186 -25 -24 -105 -60 -131 -60 -4 0 -28 26 -53 58 -61 77 -96 102
-148 105 -43 2 -43 2 -44 -33 -1 -60 -3 -67 -39 -114 -19 -26 -35 -48 -35 -51
0 -2 26 -12 58 -20 92 -26 110 -35 146 -75 30 -34 56 -91 56 -127 0 -6 17 -33
38 -60 53 -67 61 -83 67 -145 4 -29 13 -88 21 -131 27 -137 18 -205 -36 -290
-41 -64 -77 -97 -109 -97 -42 0 -86 -34 -121 -93 -58 -96 -77 -99 -307 -47
-326 74 -363 84 -363 97 0 7 35 30 77 50 61 30 82 46 97 74 25 46 16 93 -27
149 -69 90 -77 104 -77 134 0 41 -16 56 -57 56 -45 0 -73 -29 -67 -69 4 -20 1
-33 -8 -36 -7 -2 -45 -13 -85 -25 -160 -46 -167 -86 -55 -301 1 -4 -36 -12
-82 -19 -98 -14 -136 -36 -136 -79 0 -39 59 -101 96 -102 83 -1 168 -12 244
-30 47 -11 135 -24 195 -28 146 -11 193 -32 249 -116 34 -49 35 -115 3 -167
-23 -38 -91 -98 -111 -98 -15 0 -86 -59 -86 -71 0 -22 66 -68 120 -83 131 -37
183 -114 187 -275 1 -51 3 -95 5 -96 3 -3 46 -10 126 -21 44 -5 52 -10 46 -23
-30 -75 -36 -104 -25 -127 6 -14 11 -46 11 -72 0 -34 9 -61 30 -97 33 -56 39
-109 16 -153 -17 -32 -51 -64 -170 -157 -130 -102 -175 -144 -197 -187 -20
-38 -25 -68 -11 -68 4 0 45 7 92 15 47 8 85 15 86 15 0 0 50 50 109 110 60 61
111 110 114 110 4 0 13 -13 23 -29 14 -26 21 -29 50 -24 43 6 59 17 147 102
75 72 88 79 120 62 14 -8 21 -4 35 20 19 32 43 36 85 14 33 -17 60 -68 90
-170 27 -92 31 -159 14 -219 -19 -65 -34 -88 -112 -170 -61 -64 -64 -69 -46
-82 38 -28 58 -12 99 76 31 66 53 96 63 86 5 -4 9 -209 10 -454 1 -246 4 -477
7 -514 7 -77 235 -988 272 -1086 32 -85 69 -154 264 -487 217 -372 374 -599
494 -715 l37 -35 -6 38 c-18 109 -68 198 -261 462 -136 185 -206 307 -285 495
-34 80 -68 159 -75 176 -15 32 -50 54 -84 54 -19 0 -19 1 2 36 l21 36 -32 101
c-28 93 -44 161 -56 242 -9 62 -24 192 -30 255 -3 36 -8 81 -10 100 -4 34 -9
93 -20 250 -8 109 -33 413 -42 500 -13 120 -8 278 11 350 36 140 70 221 108
264 21 22 41 50 44 62 3 13 -31 93 -100 235 -146 298 -166 369 -132 450 35 81
119 140 373 265 141 69 175 90 192 118 12 18 21 42 21 52 0 25 -120 208 -130
197 -4 -4 -33 -45 -64 -90 -38 -55 -66 -85 -82 -89 -14 -4 -28 -4 -31 0 -3 3
28 57 69 118 106 160 103 153 61 155 -59 3 -82 59 -43 101 l20 21 -52 31 c-29
16 -56 30 -60 30 -5 0 -8 3 -8 8 0 4 29 18 65 30 l65 24 1 69 c1 38 2 72 3 77
1 4 5 33 10 64 13 103 53 232 119 384 35 82 69 165 76 184 20 59 34 70 94 75
l55 5 0 -148 c0 -143 18 -282 41 -305 10 -10 52 15 87 55 12 12 77 150 144
305 l122 283 -31 35 c-38 44 -55 102 -40 142 26 70 80 93 171 74 l53 -12 26
33 27 32 -27 47 c-25 46 -25 49 -9 76 26 44 62 52 111 25 22 -12 41 -21 43
-20 1 2 53 82 114 178 301 468 332 507 495 607 270 167 493 239 777 252 92 4
171 11 175 15 12 12 -24 34 -81 50 -157 46 -384 58 -540 30z m-2371 -1596 c32
-14 32 -24 -1 -32 -33 -9 -59 10 -43 30 14 17 12 17 44 2z m-150 -58 c-7 -32
-89 -119 -114 -121 -29 -2 -46 3 -63 18 -23 20 -24 86 -2 103 18 16 73 27 137
29 l49 1 -7 -30z m-47 -580 c28 -26 28 -45 0 -64 -32 -22 -55 -20 -64 7 -10
29 -6 49 14 65 21 16 24 16 50 -8z m471 -674 c27 -43 26 -50 -6 -80 l-27 -25
-23 21 c-13 12 -23 27 -23 33 0 9 50 83 57 85 1 0 11 -15 22 -34z"/>
<path d="M4720 12243 c-155 -57 -351 -139 -375 -157 -55 -42 -236 -288 -222
-302 6 -7 220 137 322 217 318 248 337 265 275 242z"/>
<path d="M4742 12168 c-56 -40 -188 -135 -294 -211 -336 -239 -386 -277 -411
-311 -14 -18 -66 -113 -115 -211 -79 -157 -89 -182 -81 -209 10 -33 -1 -46
-36 -46 -30 0 -94 -110 -115 -197 -7 -28 -6 -31 9 -24 41 22 201 202 241 271
30 52 77 108 150 180 58 58 137 141 175 185 151 174 265 297 426 461 93 94
169 174 169 177 0 16 -23 3 -118 -65z"/>
<path d="M6368 12143 c-32 -5 -36 -18 -10 -32 19 -10 298 -18 308 -9 2 3 -14
13 -38 23 -43 18 -201 29 -260 18z"/>
<path d="M8655 12116 l-100 -32 44 -32 c25 -18 47 -31 51 -30 16 8 129 105
134 116 8 18 -18 14 -129 -22z"/>
<path d="M3245 12131 c-44 -19 -71 -73 -78 -154 -5 -55 -1 -59 72 -81 139 -41
196 -4 216 140 l7 52 -58 21 c-67 26 -131 34 -159 22z"/>
<path d="M5768 12112 l-98 -3 0 -65 c0 -56 -4 -68 -25 -89 -26 -27 -46 -31
-77 -14 -22 12 -57 82 -58 117 0 30 -7 28 -76 -16 -187 -121 -565 -503 -655
-662 -18 -33 -17 -33 24 11 23 26 57 54 75 63 17 9 76 45 130 80 210 137 369
211 550 260 52 14 151 53 225 89 196 96 234 112 358 152 134 42 142 46 133 69
-6 16 -24 17 -208 14 -110 -2 -245 -4 -298 -6z"/>
<path d="M6730 12084 c0 -16 9 -18 28 -5 10 6 9 10 -7 14 -14 3 -21 0 -21 -9z"/>
<path d="M8352 12060 c-33 -8 -49 -17 -41 -23 2 -2 43 -25 91 -50 95 -52 137
-58 169 -26 l21 21 -37 25 c-73 50 -142 68 -203 53z"/>
<path d="M6520 12039 c0 -8 24 -27 53 -43 28 -17 85 -51 126 -78 40 -26 92
-53 115 -59 44 -12 116 -7 181 12 38 11 38 12 20 26 -38 30 -201 102 -274 122
-100 28 -221 39 -221 20z"/>
<path d="M6325 12032 c-11 -2 -67 -17 -125 -33 -98 -28 -310 -122 -310 -138 0
-4 30 -4 68 0 37 4 198 8 357 9 160 1 299 5 309 9 15 6 -6 22 -102 78 -116 69
-155 84 -197 75z"/>
<path d="M5235 12001 c-126 -45 -172 -84 -276 -228 -60 -82 -103 -165 -97
-184 2 -5 104 89 228 210 124 121 218 220 210 220 -8 0 -37 -8 -65 -18z"/>
<path d="M8102 11990 c-49 -11 -122 -41 -122 -49 0 -11 115 -46 246 -75 62
-14 128 -32 148 -40 37 -15 37 -15 66 17 16 18 30 35 30 39 0 11 -127 79 -178
95 -56 17 -144 23 -190 13z"/>
<path d="M7823 11928 c2 -7 16 -13 32 -13 16 0 30 6 33 13 2 8 -8 12 -33 12
-25 0 -35 -4 -32 -12z"/>
<path d="M7943 11843 c-7 -2 -13 -8 -13 -12 0 -4 49 -38 109 -74 149 -91 203
-161 237 -304 25 -105 9 -373 -30 -523 l-15 -55 32 37 c18 20 52 81 77 135 42
93 44 102 44 188 0 76 -5 101 -29 160 -64 155 -156 283 -298 413 -45 40 -77
50 -114 35z"/>
<path d="M5930 11818 c-165 -16 -320 -69 -447 -150 -37 -24 -123 -77 -191
-117 -68 -40 -121 -75 -119 -78 6 -5 79 23 460 181 343 142 426 167 517 157
120 -13 411 -4 429 14 8 9 -556 3 -649 -7z"/>
<path d="M8149 11803 c28 -39 191 -236 191 -232 10 142 11 209 5 209 -4 0 -49
11 -101 25 -117 31 -120 31 -95 -2z"/>
<path d="M6995 11811 c-82 -20 -80 -21 176 -151 134 -68 277 -141 318 -162
132 -70 102 -21 -80 129 -168 139 -212 170 -257 183 -42 11 -112 12 -157 1z"/>
<path d="M6658 11775 c-2 -2 -28 -5 -60 -8 -112 -10 -105 -17 109 -107 397
-167 476 -200 485 -200 20 0 3 24 -64 93 -77 78 -165 143 -262 196 -53 29 -67
32 -132 30 -41 -1 -75 -3 -76 -4z"/>
<path d="M5950 11741 c-55 -18 -986 -428 -1077 -474 -26 -14 -70 -49 -96 -79
-27 -29 -86 -91 -131 -138 -151 -158 -301 -322 -318 -349 -9 -14 -25 -44 -34
-66 -18 -44 -21 -45 60 22 22 18 43 33 48 33 5 0 16 -16 26 -36 17 -36 17 -37
-7 -53 -36 -24 -301 -221 -336 -250 -134 -111 -306 -346 -330 -451 l-6 -25
208 0 c208 1 208 1 258 28 28 15 120 89 205 164 419 368 494 422 830 595 85
45 202 106 260 136 267 143 435 198 660 217 41 4 136 20 210 37 141 32 180 35
452 27 65 -1 121 0 124 4 12 12 -27 46 -80 72 -102 50 -320 95 -491 102 -110
4 -146 2 -235 -17 -157 -34 -186 -38 -290 -45 -314 -21 -470 -68 -752 -230
-59 -33 -81 -29 -45 8 38 37 154 103 265 149 146 61 282 92 497 113 123 11
162 16 245 31 165 29 290 35 437 21 150 -14 360 -74 457 -131 l42 -25 43 54
c80 100 74 100 111 -12 18 -54 36 -102 40 -106 6 -7 206 -44 330 -62 24 -4 48
-9 52 -11 39 -25 -125 200 -204 278 -61 61 -85 76 -280 172 -207 102 -471 212
-613 256 -155 48 -302 36 -513 -39 -333 -120 -502 -197 -572 -263 -14 -13 -92
-82 -175 -153 -82 -71 -156 -135 -163 -142 -9 -9 -20 -9 -43 -1 -16 6 -29 11
-27 13 4 3 184 159 223 194 122 107 218 183 265 209 30 17 163 74 295 127 315
127 285 114 255 114 -14 0 -50 -8 -80 -18z m-1116 -772 c-23 -22 -281 -189
-294 -189 -66 0 106 145 238 200 68 29 91 25 56 -11z m104 -97 c4 -13 -386
-207 -396 -197 -15 15 23 44 124 95 221 110 239 119 253 117 8 -1 16 -8 19
-15z m-987 -883 c11 -22 0 -38 -27 -39 -18 0 -26 31 -13 46 16 19 26 17 40 -7z"/>
<path d="M5330 11663 c-65 -23 -204 -98 -285 -154 -72 -49 -164 -137 -133
-126 14 5 472 281 487 294 10 8 -28 0 -69 -14z"/>
<path d="M7582 11548 c74 -91 230 -242 298 -290 63 -44 166 -108 175 -108 3 0
5 51 5 113 l-1 112 -95 69 c-53 38 -121 81 -152 97 -57 28 -185 59 -243 59
l-31 0 44 -52z"/>
<path d="M7194 11563 c14 -34 98 -153 127 -177 16 -14 61 -42 100 -62 85 -45
182 -138 257 -247 65 -94 82 -134 82 -190 0 -53 18 -80 50 -75 43 6 51 92 20
230 -47 213 -94 262 -402 421 -125 64 -230 117 -234 117 -3 0 -3 -7 0 -17z"/>
<path d="M4619 11318 c-236 -271 -240 -276 -229 -283 32 -20 247 218 340 376
17 28 29 53 27 56 -3 2 -65 -65 -138 -149z"/>
<path d="M2840 11423 c-49 -18 -66 -75 -32 -106 25 -23 47 -21 93 5 38 21 39
22 23 47 -17 28 -52 61 -63 60 -3 0 -13 -3 -21 -6z"/>
<path d="M1190 11267 c-33 -17 -70 -74 -70 -109 0 -37 24 -84 51 -98 11 -7 44
-18 72 -27 29 -8 62 -21 74 -29 21 -13 23 -12 27 8 32 151 31 181 -12 220 -52
49 -94 59 -142 35z"/>
<path d="M7536 11140 c39 -52 79 -112 90 -133 19 -39 82 -103 91 -93 13 13
-79 154 -142 220 -106 109 -116 111 -39 6z"/>
<path d="M7860 11203 c0 -19 60 -356 63 -359 8 -8 59 74 83 133 39 96 44 88
-119 219 -19 16 -27 18 -27 7z"/>
<path d="M7078 11159 c-24 -42 -24 -44 22 -68 l40 -21 0 25 c0 30 -25 95 -37
95 -4 0 -16 -14 -25 -31z"/>
<path d="M1702 11060 c-27 -26 -28 -54 -2 -80 24 -24 43 -25 81 -3 35 21 36
27 3 70 -29 38 -51 42 -82 13z"/>
<path d="M4543 11048 c-25 -33 -25 -40 0 -22 27 19 34 34 18 34 -5 0 -13 -6
-18 -12z"/>
<path d="M6598 11025 c-2 -2 -46 -6 -98 -9 -172 -12 -253 -74 -419 -321 -170
-253 -249 -351 -441 -548 -63 -65 -116 -122 -118 -126 -1 -4 3 -8 10 -8 7 0
67 -3 133 -7 212 -13 252 -13 281 -1 39 17 281 219 370 309 58 58 75 84 98
144 30 79 111 199 184 275 69 71 153 123 245 152 90 28 107 43 107 91 l0 32
-94 11 c-79 10 -249 14 -258 6z"/>
<path d="M7127 10989 c-12 -42 -8 -49 23 -49 36 0 38 10 7 46 l-24 27 -6 -24z"/>
<path d="M7002 10968 c-6 -17 -10 -34 -7 -36 8 -8 23 9 33 38 15 42 -10 41
-26 -2z"/>
<path d="M7320 10982 c0 -11 151 -62 163 -55 4 2 7 13 7 24 0 13 -7 19 -22 20
-13 0 -32 2 -43 4 -71 13 -105 15 -105 7z"/>
<path d="M4423 10922 c-71 -69 -241 -323 -216 -321 7 0 268 333 286 365 17 31
-14 11 -70 -44z"/>
<path d="M6169 10976 c-2 -3 -28 -6 -57 -7 -64 -3 -69 -7 -74 -44 -4 -38 -32
-45 -57 -14 -26 33 -61 27 -196 -32 -227 -98 -759 -371 -860 -440 -38 -27
-113 -85 -165 -130 -52 -45 -120 -102 -150 -128 -30 -25 -75 -64 -101 -86 -25
-22 -87 -75 -138 -119 -50 -43 -90 -84 -88 -90 3 -8 72 -11 233 -11 263 0 321
10 509 91 137 58 208 74 337 74 l108 0 78 69 c43 37 101 95 129 127 42 49 244
307 333 424 14 18 70 92 125 164 130 170 124 156 77 156 -21 0 -41 -2 -43 -4z"/>
<path d="M7236 10941 c-4 -6 17 -17 51 -26 32 -9 66 -19 76 -21 35 -10 16 12
-26 28 -61 25 -94 31 -101 19z"/>
<path d="M7540 10919 c0 -12 24 -22 45 -17 12 2 7 7 -14 15 -18 6 -31 7 -31 2z"/>
<path d="M8158 10758 c-76 -95 -109 -143 -99 -146 22 -7 108 40 126 70 16 27
23 103 11 115 -2 2 -19 -15 -38 -39z"/>
<path d="M6798 10630 c-81 -50 -141 -124 -163 -200 l-7 -25 18 25 c10 14 51
57 92 95 72 69 118 122 110 130 -2 2 -24 -9 -50 -25z"/>
<path d="M7105 10654 c-5 -1 -23 -5 -39 -9 -34 -7 -390 -365 -377 -378 8 -8
511 358 524 381 5 7 -85 13 -108 6z"/>
<path d="M7362 10638 c-21 -24 -61 -104 -62 -125 0 -7 33 6 73 29 39 22 92 52
117 66 l45 26 -30 12 c-50 22 -118 18 -143 -8z"/>
<path d="M7148 10542 c-220 -154 -499 -375 -533 -422 -65 -88 -125 -253 -108
-297 6 -15 155 83 239 158 118 107 427 415 455 456 16 23 32 56 35 72 7 33 -2
81 -14 80 -4 0 -37 -21 -74 -47z"/>
<path d="M7498 10545 c-20 -14 -41 -25 -45 -26 -17 -1 -117 -76 -137 -102 -19
-26 -21 -43 -22 -199 -1 -93 -5 -197 -8 -231 -18 -156 -132 -675 -178 -807
-43 -123 -95 -204 -202 -316 -53 -54 -96 -107 -96 -116 0 -10 1 -18 3 -18 33
0 176 24 191 32 11 6 74 49 139 94 65 46 151 102 192 124 41 23 149 97 240
165 191 144 194 146 329 190 207 68 208 68 491 69 207 1 277 -3 345 -16 47
-10 138 -27 203 -38 189 -33 312 -89 400 -184 111 -119 236 -306 308 -462 21
-45 43 -85 49 -89 10 -6 15 61 12 204 -3 152 -58 272 -193 416 -26 28 -95 109
-154 180 -247 299 -307 369 -454 524 -219 234 -383 362 -616 482 -143 73 -165
78 -241 46 -116 -49 -265 -64 -337 -34 -20 9 -65 43 -101 76 -36 34 -69 61
-73 61 -5 0 -25 -11 -45 -25z"/>
<path d="M7905 10545 c-22 -8 -56 -14 -76 -14 -22 -1 -43 -8 -54 -21 -17 -18
-16 -19 10 -26 37 -9 154 2 195 18 l34 14 -22 22 c-25 25 -31 25 -87 7z"/>
<path d="M3488 10463 c-15 -49 -44 -140 -66 -203 -34 -100 -47 -156 -67 -282
-2 -15 -1 -29 4 -32 4 -3 54 42 111 99 116 116 110 99 90 259 -6 50 -15 122
-20 160 -5 38 -13 73 -17 77 -5 5 -20 -29 -35 -78z"/>
<path d="M3392 10373 c-44 -84 -90 -223 -108 -326 -8 -49 -13 -91 -10 -94 11
-12 26 11 41 65 52 175 114 406 111 409 -1 2 -17 -23 -34 -54z"/>
<path d="M356 10321 c-3 -4 6 -13 20 -20 33 -15 44 -14 44 3 0 22 -53 36 -64
17z"/>
<path d="M6598 10307 c-14 -12 -32 -33 -38 -46 -12 -23 -9 -22 31 9 24 19 46
35 48 37 3 2 0 8 -5 13 -6 6 -19 1 -36 -13z"/>
<path d="M6978 10153 c-90 -87 -165 -160 -168 -163 -38 -40 -165 -141 -236
-188 -73 -49 -95 -69 -107 -99 -20 -52 -42 -135 -57 -213 -13 -71 -42 -135
-102 -223 -57 -84 -63 -101 -112 -348 -25 -123 -56 -272 -69 -331 -21 -96 -22
-108 -8 -108 40 0 97 25 169 74 116 79 182 112 292 146 122 38 151 59 211 145
128 187 197 421 213 735 15 274 27 347 96 564 28 87 48 161 46 163 -2 3 -78
-66 -168 -154z"/>
<path d="M7207 10258 c-49 -102 -103 -288 -126 -438 -6 -36 -13 -126 -16 -200
-9 -206 -31 -345 -76 -491 -22 -72 -38 -136 -36 -142 5 -16 63 72 96 145 37
85 54 149 96 378 20 107 50 249 66 315 16 66 35 176 41 245 10 120 5 240 -11
240 -4 0 -19 -24 -34 -52z"/>
<path d="M2017 10246 c-6 -15 11 -36 28 -36 5 0 17 5 25 10 13 8 12 11 -5 24
-25 19 -41 20 -48 2z"/>
<path d="M6534 10158 c-16 -12 -31 -23 -33 -25 -2 -2 -2 -6 2 -9 3 -3 22 5 42
19 20 14 32 28 27 31 -5 3 -23 -4 -38 -16z"/>
<path d="M6127 10068 c-58 -46 -74 -64 -63 -70 22 -12 73 2 99 28 24 23 62
105 49 103 -4 0 -42 -28 -85 -61z"/>
<path d="M6478 10054 c-58 -18 -77 -44 -87 -118 -4 -31 -6 -56 -5 -56 3 0 126
159 137 178 5 6 7 12 5 11 -2 0 -24 -7 -50 -15z"/>
<path d="M3503 10017 c-37 -34 -113 -159 -113 -186 0 -17 40 -13 85 9 68 33
103 124 76 194 -7 18 -11 16 -48 -17z"/>
<path d="M5275 9999 c-45 -4 -104 -20 -165 -44 -52 -21 -126 -47 -165 -60
l-70 -22 40 -7 c75 -13 236 -14 288 -2 87 21 136 52 185 117 11 14 9 17 -15
20 -16 2 -59 1 -98 -2z"/>
<path d="M5468 9966 c-20 -7 -59 -32 -87 -55 -27 -23 -75 -53 -108 -68 -57
-26 -63 -27 -313 -32 -279 -7 -273 -5 -337 -71 -35 -35 -61 -84 -65 -120 -3
-19 5 -25 42 -36 69 -21 73 -19 66 21 -8 41 0 75 17 75 7 0 26 -30 41 -67 16
-38 30 -69 31 -71 3 -4 126 26 210 53 54 17 103 25 153 25 94 0 354 66 449
113 72 37 155 96 238 171 47 42 48 46 25 46 -95 4 -184 12 -242 20 -80 12 -74
12 -120 -4z"/>
<path d="M5955 9921 c-16 -10 -39 -28 -50 -41 l-20 -22 35 7 c43 9 102 38 119
59 12 14 9 16 -20 16 -19 0 -47 -8 -64 -19z"/>
<path d="M3271 9873 c-13 -33 2 -94 19 -77 18 18 22 68 7 88 -13 18 -14 17
-26 -11z"/>
<path d="M6262 9842 c-42 -37 -70 -96 -51 -108 9 -5 89 51 89 64 1 4 3 24 6
45 3 20 4 37 2 37 -2 0 -22 -17 -46 -38z"/>
<path d="M6399 9835 c-30 -29 -50 -59 -56 -84 l-10 -38 29 11 c16 6 43 22 60
36 26 22 29 30 26 73 l-3 47 -46 -45z"/>
<path d="M3842 9827 c-35 -5 -62 -10 -60 -12 9 -8 162 -45 186 -45 34 0 98 38
85 51 -13 13 -136 16 -211 6z"/>
<path d="M4215 9830 c-29 -3 -70 -17 -97 -33 -43 -26 -78 -57 -64 -57 3 0 97
-27 209 -60 112 -33 211 -60 219 -60 21 0 152 199 136 205 -20 7 -346 11 -403
5z m82 -55 c1 -5 -1 -16 -6 -24 -8 -12 -12 -12 -25 -2 -8 7 -12 19 -9 27 6 16
34 15 40 -1z"/>
<path d="M5777 9736 c-54 -19 -182 -76 -285 -129 -103 -52 -223 -107 -267
-123 -44 -15 -84 -31 -89 -36 -14 -11 41 -67 87 -88 48 -22 75 -17 268 52 103
36 220 126 310 239 64 79 92 119 83 118 -5 0 -53 -15 -107 -33z"/>
<path d="M3370 9738 c0 -20 1 -21 20 -3 11 10 20 20 20 22 0 1 -9 3 -20 3 -14
0 -20 -7 -20 -22z"/>
<path d="M3217 9736 c-6 -15 1 -26 15 -26 11 0 10 27 -1 34 -5 3 -11 0 -14 -8z"/>
<path d="M3760 9740 c-14 -4 -35 -13 -47 -21 -18 -11 -26 -11 -46 0 -22 12
-37 10 -113 -13 -110 -32 -162 -67 -192 -128 -22 -43 -22 -48 -8 -82 11 -26
26 -41 51 -51 38 -16 40 -21 25 -59 -17 -47 7 -36 35 15 26 48 26 50 6 40 -29
-16 -37 -9 -39 36 -2 32 5 45 40 82 39 41 42 43 55 25 24 -33 15 -100 -26
-202 -22 -53 -44 -114 -49 -134 -9 -34 -8 -38 8 -38 10 0 49 11 87 24 197 71
552 166 748 201 154 28 175 39 175 99 0 23 -8 27 -87 51 -49 14 -101 30 -117
35 -16 6 -30 10 -32 10 -2 0 -15 -22 -29 -50 -28 -55 -40 -60 -73 -30 -21 20
-39 81 -28 98 3 5 -13 18 -36 28 -54 24 -124 22 -218 -9 -41 -13 -87 -27 -103
-31 -49 -12 -10 29 55 57 57 25 75 46 41 48 -10 0 -27 2 -38 4 -11 1 -31 -1
-45 -5z"/>
<path d="M6121 9686 c-14 -56 -9 -68 13 -34 11 17 13 32 8 53 -8 29 -9 29 -21
-19z"/>
<path d="M6240 9685 c-37 -38 -35 -57 4 -32 23 15 43 53 34 63 -3 2 -20 -12
-38 -31z"/>
<path d="M6368 9674 c-52 -27 -51 -24 -83 -229 -25 -158 -24 -147 -8 -133 29
24 75 99 94 155 19 55 54 222 47 228 -2 2 -24 -8 -50 -21z"/>
<path d="M5185 9579 c-71 -15 -137 -30 -145 -32 -8 -2 7 -8 33 -14 62 -14 145
2 210 40 76 45 77 45 -98 6z"/>
<path d="M5987 9558 c-19 -24 -71 -81 -115 -128 -44 -47 -78 -87 -76 -89 10
-10 124 58 165 99 37 37 49 58 58 100 6 29 10 55 8 57 -2 2 -20 -16 -40 -39z"/>
<path d="M6225 9590 c-36 -15 -64 -49 -75 -93 -6 -23 -17 -62 -25 -87 -8 -25
-21 -74 -30 -110 -9 -36 -19 -74 -22 -85 -3 -13 15 0 51 35 80 77 127 175 134
275 5 76 3 80 -33 65z"/>
<path d="M4520 9504 c-6 -14 -10 -26 -10 -28 0 -1 25 2 55 7 30 6 55 13 55 17
0 10 -48 30 -71 30 -12 0 -23 -10 -29 -26z"/>
<path d="M6063 9468 c-11 -13 -31 -56 -46 -95 -46 -129 -77 -167 -290 -352
-53 -46 -97 -88 -97 -93 0 -18 61 -98 75 -98 21 0 168 144 223 218 64 87 106
171 136 274 25 88 38 168 26 168 -3 0 -16 -10 -27 -22z"/>
<path d="M4610 9439 c-139 -36 -224 -80 -500 -259 -229 -149 -320 -201 -320
-185 0 14 73 71 202 157 128 85 182 128 165 128 -21 0 -450 -121 -475 -134
-43 -22 -74 -68 -110 -161 -22 -58 -27 -82 -19 -87 25 -16 74 -7 117 23 25 16
58 37 73 45 l28 15 -15 -30 c-9 -16 -20 -33 -26 -36 -17 -11 -11 -22 23 -44
l32 -21 -41 0 c-71 0 -139 -27 -186 -73 -38 -36 -51 -63 -100 -192 -94 -249
-114 -328 -98 -398 7 -31 9 -27 65 88 31 66 72 153 91 194 37 81 29 78 125 51
58 -17 92 -8 120 32 32 44 30 108 -5 176 l-27 53 74 34 c56 26 81 44 100 74
48 72 152 116 396 167 l123 26 39 -21 c34 -19 39 -20 39 -6 0 9 7 29 15 45 18
34 18 34 379 129 143 37 261 72 263 77 7 20 -72 97 -121 120 -57 26 -110 30
-215 13 -53 -8 -76 -7 -107 4 -34 11 -48 11 -104 -4z"/>
<path d="M5767 9216 c-114 -89 -212 -167 -218 -173 -8 -8 -2 -20 19 -44 l29
-32 84 67 c108 87 204 180 238 231 23 35 65 116 58 114 -1 0 -95 -73 -210
-163z"/>
<path d="M3985 9326 c-212 -54 -533 -161 -561 -188 -13 -11 -36 -66 -57 -132
-40 -123 -65 -157 -116 -158 -44 -1 -48 8 -13 26 43 22 66 59 95 154 30 98 43
96 -126 21 -275 -121 -372 -215 -353 -341 4 -24 36 -109 72 -189 36 -79 75
-165 86 -191 22 -51 37 -62 33 -25 -5 43 15 163 36 221 23 64 104 206 141 246
44 50 83 69 149 76 100 10 126 31 160 134 12 36 30 81 40 101 26 52 95 107
154 123 27 8 102 28 166 45 153 40 323 102 306 113 -19 12 -30 10 -212 -36z"/>
<path d="M8128 9354 c-215 -35 -355 -99 -548 -249 -124 -96 -203 -150 -285
-195 -76 -42 -151 -91 -190 -124 l-30 -25 135 -1 c397 -1 481 -1 546 -1 l70 1
32 73 c38 85 75 128 162 187 58 40 376 202 567 290 108 50 99 52 -177 55 -130
1 -233 -2 -282 -11z"/>
<path d="M8760 9283 c-19 -8 -61 -17 -93 -18 -49 -2 -82 -15 -215 -79 -342
-167 -497 -268 -535 -348 -16 -36 -29 -108 -18 -108 3 0 76 41 161 90 85 50
173 95 195 101 57 16 162 5 380 -38 131 -25 197 -46 270 -83 82 -42 139 -20
185 73 34 70 48 140 43 213 -11 132 -37 164 -162 193 -105 25 -163 26 -211 4z"/>
<path d="M6145 9197 c-31 -34 -134 -142 -229 -241 -94 -98 -175 -184 -179
-192 -9 -15 27 -94 43 -94 6 0 73 80 151 178 78 97 149 186 158 197 92 114
141 198 122 209 -5 3 -34 -22 -66 -57z"/>
<path d="M5592 9187 c-126 -53 -138 -66 -96 -94 20 -12 28 -8 115 53 151 107
149 111 -19 41z"/>
<path d="M9180 9223 c1 -5 7 -34 14 -65 27 -110 1 -232 -74 -347 -29 -46 -91
-91 -125 -91 -11 0 -15 -6 -11 -17 20 -64 46 -199 50 -258 2 -38 5 -77 6 -85
0 -9 21 8 49 40 27 30 52 53 54 50 11 -10 -22 -82 -61 -133 -47 -62 -66 -97
-53 -97 25 0 189 62 218 83 18 13 46 42 63 65 28 39 61 54 74 33 3 -4 -42 -76
-100 -160 -104 -149 -105 -152 -94 -186 6 -19 8 -44 5 -56 -9 -27 -72 -55
-153 -68 -56 -9 -81 -22 -242 -130 -98 -66 -196 -124 -217 -130 -93 -23 -346
-37 -748 -40 -187 -1 -358 -5 -380 -8 -22 -3 -76 -20 -120 -38 -99 -40 -149
-52 -245 -60 -130 -11 -280 -34 -281 -44 0 -3 -2 -15 -5 -26 -2 -11 -5 -37 -5
-58 -2 -43 -3 -45 -54 -51 -69 -9 -93 2 -129 59 l-33 51 -49 -3 c-101 -6 -312
-35 -390 -53 -221 -51 -283 -104 -313 -270 -13 -72 -40 -293 -36 -298 1 -2 26
28 56 65 101 129 141 158 409 294 l185 94 140 -1 c233 -1 284 -16 560 -165
106 -57 150 -96 317 -279 131 -145 182 -208 345 -425 192 -256 356 -490 495
-707 164 -254 245 -363 360 -486 115 -122 309 -279 518 -419 114 -76 154 -89
314 -97 109 -5 196 17 430 109 258 101 368 153 491 231 137 88 230 125 368
148 22 4 37 13 37 21 0 25 -57 81 -128 125 -252 159 -282 186 -282 248 0 41
24 57 81 53 9 0 53 -32 98 -69 99 -84 139 -107 174 -98 30 7 34 23 42 142 7
112 3 117 -150 149 -187 40 -295 100 -295 164 0 37 34 71 70 71 15 0 44 -11
64 -25 116 -79 242 -145 276 -145 69 0 102 44 101 138 -1 102 -54 180 -185
273 -118 84 -217 99 -334 53 -56 -23 -70 -25 -97 -15 -59 21 -83 14 -139 -39
-43 -40 -60 -50 -87 -50 -55 1 -99 49 -99 109 0 43 48 88 213 201 76 52 180
124 232 160 51 36 121 76 155 89 33 13 63 28 66 33 3 4 -6 23 -20 41 -55 72
-70 123 -71 253 -2 129 -19 187 -65 229 -19 17 -21 16 -72 -23 -29 -22 -78
-64 -109 -94 -67 -65 -112 -88 -174 -88 -121 0 -215 113 -215 259 0 96 61 162
102 111 11 -13 16 -30 13 -37 -3 -8 -8 -38 -11 -68 -9 -73 9 -122 51 -142 44
-21 79 -11 122 35 179 190 214 216 306 228 74 10 104 -29 77 -101 -12 -32 0
-88 26 -116 16 -18 17 -18 44 1 18 13 40 49 63 105 43 102 87 238 87 268 0
114 -105 210 -318 291 -123 47 -237 105 -411 210 -237 142 -308 209 -332 311
-31 133 -62 217 -113 302 -80 135 -244 369 -283 403 -37 33 -113 75 -113 63z
m-1279 -2042 c37 -37 39 -88 7 -126 -24 -28 -46 -33 -90 -22 -46 12 -69 77
-43 127 30 57 81 66 126 21z m369 -1148 c21 -19 26 -38 11 -47 -24 -15 -62 29
-46 54 8 13 11 13 35 -7z"/>
<path d="M356 9159 c-42 -29 -76 -55 -76 -60 0 -12 67 -149 82 -166 36 -43
130 -58 186 -29 26 14 80 87 95 130 1 5 21 11 42 15 55 9 56 31 3 61 -24 13
-70 41 -102 62 -88 56 -131 54 -230 -13z"/>
<path d="M5205 9110 c-66 -16 -154 -40 -195 -53 -41 -14 -93 -28 -115 -32 -22
-3 -85 -21 -140 -39 -55 -18 -129 -40 -165 -49 -36 -8 -90 -27 -120 -41 l-55
-26 110 5 c315 16 562 91 775 235 54 36 56 36 -95 0z"/>
<path d="M5295 9061 c-40 -20 -85 -54 -85 -65 0 -5 55 0 104 10 52 11 119 45
108 56 -20 20 -86 19 -127 -1z"/>
<path d="M5989 8859 c-96 -121 -177 -229 -182 -241 -5 -14 4 -47 29 -107 20
-47 38 -94 41 -104 6 -20 18 -18 106 21 67 29 70 34 118 201 55 187 94 431 71
445 -5 3 -88 -94 -183 -215z"/>
<path d="M1298 9026 c-25 -18 -37 -57 -27 -84 17 -45 112 -63 123 -23 15 58
15 70 -5 95 -23 29 -62 34 -91 12z"/>
<path d="M5409 8995 c-3 -2 -63 -16 -134 -30 -72 -14 -149 -32 -172 -41 -22
-8 -112 -67 -200 -130 -87 -63 -213 -150 -280 -192 -67 -42 -121 -77 -119 -79
2 -2 56 8 120 21 148 31 348 99 513 174 164 74 393 200 393 215 0 27 -50 67
-84 67 -18 0 -35 -2 -37 -5z"/>
<path d="M4854 8880 c-26 -10 -212 -47 -284 -56 -30 -3 -138 -7 -240 -8 -175
-2 -188 -4 -240 -28 -30 -14 -74 -43 -97 -64 l-43 -39 23 -92 22 -93 35 -1
c261 -10 455 49 694 209 96 64 201 149 210 170 6 14 -46 16 -80 2z"/>
<path d="M5480 8849 c-438 -238 -707 -335 -1035 -374 -128 -15 -139 -19 -350
-136 -194 -107 -330 -280 -342 -432 -4 -61 -4 -62 12 -34 9 15 19 49 22 75 10
85 46 130 111 139 32 4 42 10 46 29 8 30 97 97 202 151 84 43 214 86 459 152
197 52 245 60 400 66 72 2 145 9 163 14 58 17 417 219 449 253 l31 33 -34 53
c-19 28 -39 52 -46 52 -7 0 -47 -19 -88 -41z"/>
<path d="M8212 8835 c-110 -52 -204 -111 -242 -150 l-33 -34 57 -66 c32 -36
90 -92 129 -124 l72 -58 27 43 c23 37 32 44 58 44 40 0 294 -97 423 -162 195
-97 236 -105 256 -48 16 46 7 284 -13 348 -20 62 -64 115 -119 144 -37 18
-208 58 -317 73 -25 3 -72 10 -105 15 -94 15 -116 12 -193 -25z"/>
<path d="M3367 8806 c-42 -13 -87 -32 -98 -42 -45 -40 -135 -190 -153 -253
-24 -85 -26 -205 -5 -227 15 -15 20 -9 64 78 67 133 144 245 220 320 40 41 70
80 79 106 15 41 15 42 -7 41 -12 0 -57 -10 -100 -23z"/>
<path d="M5625 8685 c-16 -12 -75 -47 -130 -76 -140 -74 -229 -132 -281 -184
-24 -24 -44 -47 -44 -51 0 -23 303 63 414 117 85 41 136 87 136 121 0 26 -37
89 -55 94 -5 2 -23 -8 -40 -21z"/>
<path d="M7045 8703 c-41 -11 -115 -72 -258 -216 -49 -49 -86 -91 -84 -93 2
-3 98 15 213 40 220 47 363 71 479 81 146 12 154 14 161 41 8 30 15 30 44 -1
13 -13 42 -32 65 -41 41 -15 148 -24 159 -13 3 2 6 47 7 98 2 71 0 95 -12 102
-14 9 -737 11 -774 2z"/>
<path d="M6815 8695 c-5 -2 -22 -6 -36 -9 -14 -3 -65 -44 -112 -90 -112 -110
-207 -191 -323 -277 -93 -68 -98 -75 -94 -114 4 -41 19 -46 68 -21 74 38 220
137 307 210 79 66 308 287 302 292 -4 4 -101 12 -112 9z"/>
<path d="M3373 8602 c-27 -31 -68 -88 -90 -127 -88 -155 -143 -265 -143 -289
0 -50 73 -186 101 -186 4 0 10 12 14 28 3 15 17 54 30 87 13 33 25 83 28 110
9 91 37 185 87 299 28 62 50 115 50 118 0 3 -6 8 -14 11 -9 4 -33 -16 -63 -51z"/>
<path d="M6480 8573 c-58 -31 -136 -69 -173 -85 -129 -52 -280 -173 -306 -243
-19 -53 0 -63 29 -15 28 46 70 70 111 63 15 -2 44 3 64 11 56 24 217 144 321
242 7 6 26 23 44 38 63 52 17 47 -90 -11z"/>
<path d="M5705 8519 c-41 -42 -152 -94 -265 -124 -239 -65 -301 -97 -321 -166
-15 -48 -60 -89 -99 -89 -34 0 -67 -26 -75 -61 l-6 -26 71 13 c107 21 179 40
348 95 148 49 153 52 178 91 25 39 27 40 69 34 37 -6 56 -1 127 30 46 21 87
41 92 45 10 9 -65 189 -79 189 -5 0 -23 -14 -40 -31z"/>
<path d="M1466 8503 c-6 -7 25 -63 35 -63 7 0 19 25 19 39 0 11 -47 31 -54 24z"/>
<path d="M4097 8460 c-78 -6 -91 -10 -117 -35 -29 -27 -29 -28 -56 -10 -22 14
-40 16 -90 12 -83 -8 -129 -28 -149 -67 -17 -32 -13 -50 11 -50 22 0 17 -13
-17 -46 -92 -87 -214 -369 -211 -484 1 -34 19 -78 71 -182 68 -136 147 -264
166 -272 7 -2 8 52 5 158 -3 88 -5 226 -5 306 2 128 5 153 26 210 31 82 85
163 145 220 48 45 318 230 335 230 6 0 7 5 4 10 -3 6 -12 9 -18 9 -7 -1 -52
-5 -100 -9z"/>
<path d="M5110 8441 l-54 -17 24 -17 c20 -14 27 -15 44 -4 17 12 55 59 45 56
-2 -1 -29 -9 -59 -18z"/>
<path d="M7389 8456 c-2 -2 -39 -6 -83 -10 -331 -28 -739 -150 -862 -258 -66
-58 -257 -282 -275 -323 -20 -45 -24 -65 -34 -156 -6 -58 -4 -67 19 -98 26
-35 24 -53 -8 -81 -13 -10 -22 -10 -47 0 -27 11 -32 11 -44 -6 -7 -10 -29 -39
-48 -64 -20 -24 -35 -46 -33 -47 1 -2 34 8 72 21 88 31 139 40 415 71 411 46
653 75 709 86 63 12 161 44 205 67 24 13 73 16 260 17 210 2 394 8 550 20 33
3 101 7 150 10 184 12 290 49 464 161 64 42 89 63 85 74 -10 28 -114 186 -131
202 -10 9 -28 19 -40 22 -33 10 -30 -13 7 -59 27 -33 40 -75 24 -75 -20 0 -48
28 -75 74 -34 61 -75 106 -96 106 -10 0 -3 -19 22 -63 57 -104 44 -134 -19
-43 -60 88 -105 115 -261 161 -147 43 -211 70 -295 124 l-55 36 -135 3 -136 3
-17 -40 c-14 -32 -29 -46 -72 -66 -46 -23 -56 -25 -74 -13 -27 17 -49 64 -53
111 -2 36 -3 37 -43 37 -23 0 -44 -2 -46 -4z m-249 -266 c29 -29 25 -74 -8
-111 -28 -31 -29 -31 -59 -16 -54 29 -59 83 -10 121 39 31 51 32 77 6z m962
-231 c59 -31 74 -87 39 -145 -17 -28 -73 -64 -101 -64 -41 0 -100 84 -100 143
0 67 90 104 162 66z"/>
<path d="M1600 8405 c-31 -11 -33 -14 -15 -20 11 -5 23 -9 26 -11 3 -2 11 8
17 21 7 14 11 25 9 24 -1 0 -18 -6 -37 -14z"/>
<path d="M4710 8369 c-212 -33 -420 -100 -420 -135 0 -21 20 -18 163 23 129
37 129 37 222 25 67 -8 101 -9 124 -1 29 10 31 14 31 60 0 27 -1 48 -2 48 -2
-1 -55 -10 -118 -20z"/>
<path d="M5976 8380 c-40 -12 -70 -41 -54 -52 26 -16 55 -8 68 20 21 40 21 42
18 41 -2 0 -16 -5 -32 -9z"/>
<path d="M5810 8301 c-14 -5 -70 -31 -125 -58 -65 -32 -163 -68 -280 -102
-499 -146 -491 -143 -526 -191 -29 -38 -59 -135 -66 -206 -7 -71 -8 -69 67
-65 48 3 76 24 108 79 44 77 134 159 215 198 64 30 261 84 310 84 10 0 39 21
65 48 60 61 90 82 189 131 73 36 93 54 93 82 0 10 -15 10 -50 0z"/>
<path d="M4810 8244 c-115 -17 -145 -28 -349 -125 -68 -32 -127 -59 -131 -59
-4 0 -30 -20 -58 -45 -51 -46 -95 -123 -107 -189 l-7 -36 38 -1 c22 0 53 -2
69 -5 17 -2 60 -5 98 -7 l67 -2 81 87 c81 88 141 137 317 259 53 36 97 70 99
76 3 9 -76 55 -88 52 -2 -1 -15 -3 -29 -5z"/>
<path d="M9188 8224 c-34 -18 -35 -24 -5 -24 12 0 28 9 35 20 14 24 7 25 -30
4z"/>
<path d="M5775 8176 c-92 -44 -169 -107 -129 -105 10 0 73 15 139 33 103 27
120 35 123 53 4 27 -14 63 -31 63 -7 -1 -52 -20 -102 -44z"/>
<path d="M4473 8199 c-23 -4 -54 -14 -70 -22 -29 -16 -69 -54 -62 -61 4 -4
168 69 178 79 9 10 -5 11 -46 4z"/>
<path d="M8850 8180 c0 -9 39 -25 46 -18 2 3 -7 10 -21 16 -14 6 -25 7 -25 2z"/>
<path d="M4830 8071 c-110 -63 -234 -167 -282 -233 l-19 -27 38 13 c161 57
289 159 318 254 8 27 2 27 -55 -7z"/>
<path d="M5907 8037 c-51 -71 -64 -97 -50 -97 14 0 137 42 145 49 3 3 -6 30
-21 60 l-28 53 -46 -65z"/>
<path d="M8860 8068 c0 -21 27 -55 49 -61 19 -5 19 -3 -3 31 -24 38 -46 53
-46 30z"/>
<path d="M5740 8028 c-139 -35 -149 -38 -165 -54 -8 -9 -15 -33 -15 -56 l0
-40 33 7 c17 4 60 13 95 19 69 14 103 39 133 98 24 47 14 50 -81 26z"/>
<path d="M9034 8040 c-32 -12 -39 -40 -10 -40 34 0 56 10 56 25 0 18 -21 24
-46 15z"/>
<path d="M6162 8018 c-33 -16 -42 -26 -40 -41 5 -35 24 -30 62 18 42 50 39 53
-22 23z"/>
<path d="M3108 7928 c-20 -255 -15 -1258 7 -1377 2 -15 10 -103 20 -230 4 -57
26 -101 50 -101 8 0 15 -8 16 -17 0 -15 2 -15 8 2 9 22 7 57 -9 160 -17 106
-18 111 -30 240 -6 66 -13 147 -16 180 -10 97 -11 451 -3 580 5 66 16 172 25
235 29 203 29 242 3 294 -12 25 -32 55 -45 67 l-22 21 -4 -54z"/>
<path d="M5386 7954 c-73 -16 -188 -64 -218 -91 -18 -16 -25 -58 -10 -67 4 -2
65 -6 134 -8 l127 -3 30 29 c33 32 75 121 67 142 -7 17 -41 17 -130 -2z"/>
<path d="M5942 7915 c-41 -13 -76 -26 -78 -28 -3 -3 4 -22 15 -43 30 -55 27
-87 -10 -118 -37 -31 -86 -34 -144 -7 l-40 18 -26 -31 -26 -30 100 -119 c80
-94 103 -115 112 -105 7 7 63 100 125 206 96 166 111 198 106 224 -8 38 -23
58 -45 58 -9 -1 -49 -12 -89 -25z"/>
<path d="M4729 7857 c-35 -19 -92 -49 -127 -67 -35 -18 -60 -36 -55 -41 15
-14 197 -79 204 -71 9 10 52 203 46 208 -2 3 -33 -11 -68 -29z"/>
<path d="M2246 7845 c-21 -31 -20 -38 4 -60 18 -17 21 -17 45 -1 30 19 32 46
7 69 -25 23 -37 21 -56 -8z"/>
<path d="M5598 7841 c-43 -9 -83 -34 -97 -60 -12 -21 -8 -25 52 -55 l38 -20
40 40 c26 26 40 50 42 69 2 34 -11 38 -75 26z"/>
<path d="M4158 7728 c-19 -6 -28 -17 -29 -31 0 -12 -6 -61 -13 -109 -7 -49
-10 -88 -7 -88 3 0 20 13 36 28 17 16 71 63 120 107 50 43 91 81 93 85 1 4
-28 10 -65 13 -85 8 -101 8 -135 -5z"/>
<path d="M5157 7729 c-85 -11 -107 -22 -107 -54 0 -14 2 -25 5 -25 20 0 193
74 189 81 -3 5 -8 8 -12 8 -4 -1 -38 -5 -75 -10z"/>
<path d="M4444 7699 c-37 -13 -82 -137 -113 -308 -43 -229 -44 -401 -5 -606
39 -203 78 -358 92 -363 14 -4 24 17 103 223 34 88 97 234 142 325 71 147 80
171 80 222 0 48 -5 66 -33 110 -45 70 -46 122 -3 194 44 73 48 90 25 110 -53
45 -248 108 -288 93z"/>
<path d="M3424 7523 c3 -93 8 -314 11 -493 8 -462 11 -506 46 -685 36 -177 94
-335 204 -550 131 -258 293 -556 312 -575 13 -13 15 -11 10 20 -2 19 -18 96
-35 170 -47 203 -55 277 -47 420 4 69 7 159 7 200 -1 93 -71 506 -156 912
l-64 308 -39 44 c-21 24 -55 75 -74 113 -80 158 -153 283 -166 283 -11 0 -12
-31 -9 -167z"/>
<path d="M6012 7637 c-32 -53 -52 -117 -36 -117 5 0 18 17 29 38 10 20 27 48
36 62 25 38 33 70 17 70 -8 0 -28 -24 -46 -53z"/>
<path d="M5230 7657 c-94 -27 -170 -97 -224 -204 -14 -29 -26 -57 -26 -62 0
-11 195 46 323 94 102 38 155 72 180 114 l17 29 -47 17 c-65 22 -168 28 -223
12z"/>
<path d="M4234 7553 c-53 -54 -100 -108 -105 -121 -14 -35 -11 -130 7 -223 30
-163 156 -579 175 -579 13 0 11 20 -12 123 -44 197 -54 317 -35 417 6 27 41
265 51 345 4 28 10 69 15 93 4 23 6 42 4 42 -2 0 -47 -44 -100 -97z"/>
<path d="M5509 7569 c-67 -69 -132 -103 -304 -158 -150 -49 -237 -92 -255
-126 -28 -52 2 -176 55 -229 7 -7 19 -33 25 -57 18 -66 53 -129 148 -267 101
-148 131 -168 237 -160 102 9 181 60 247 163 37 56 39 64 33 111 -7 63 -25
121 -59 197 -34 74 -33 111 0 142 14 13 35 27 45 30 11 4 19 15 19 25 0 11 11
36 25 56 14 20 25 49 25 64 0 48 -56 142 -122 205 l-63 60 -56 -56z"/>
<path d="M4899 7563 c6 -10 20 -31 33 -46 l24 -29 26 38 c15 21 26 39 25 40
-1 0 -28 4 -60 8 -53 6 -57 5 -48 -11z"/>
<path d="M3890 7459 c0 -23 5 -39 14 -42 22 -9 26 31 5 56 l-18 22 -1 -36z"/>
<path d="M10375 7401 c-43 -19 -117 -95 -149 -152 -16 -30 -11 -27 40 23 54
52 114 89 187 117 16 6 25 15 22 21 -10 15 -56 11 -100 -9z"/>
<path d="M3760 7331 c-20 -10 -37 -29 -41 -44 -6 -22 -2 -29 32 -51 21 -14 42
-26 47 -26 15 0 44 64 41 89 -2 13 -13 30 -24 37 -18 12 -26 11 -55 -5z"/>
<path d="M6434 7216 c-17 -8 -36 -21 -42 -28 -9 -12 -4 -15 31 -16 115 -6 231
-29 315 -63 135 -53 203 -107 442 -348 393 -394 453 -465 540 -640 52 -104 84
-218 104 -371 10 -69 19 -136 21 -150 20 -119 24 -262 8 -348 -28 -147 -58
-191 -284 -419 -181 -183 -239 -233 -270 -233 -27 0 -122 -61 -112 -71 5 -5
45 -16 89 -25 111 -22 321 -13 345 15 12 15 35 21 95 26 75 7 249 50 544 135
283 82 413 96 728 76 84 -5 142 -5 142 0 0 5 -35 32 -78 61 -98 65 -327 259
-412 349 -94 99 -122 135 -276 364 -765 1137 -1087 1504 -1454 1650 -86 35
-115 39 -285 45 -126 4 -167 2 -191 -9z"/>
<path d="M4847 7192 c-10 -10 -17 -25 -17 -33 0 -8 18 -84 39 -170 58 -230
103 -308 287 -496 108 -110 133 -128 170 -119 19 5 27 1 36 -19 9 -20 126
-105 145 -105 14 0 -8 113 -34 176 -23 55 -33 70 -53 72 -15 3 -29 -3 -38 -15
-12 -17 -14 -17 -23 -1 -5 9 -37 32 -70 49 -73 39 -97 68 -222 269 -105 169
-161 281 -179 359 -13 56 -17 60 -41 33z"/>
<path d="M5719 7147 l-45 -12 29 -92 c16 -51 33 -93 38 -93 4 0 13 17 19 39
14 54 24 171 14 170 -5 0 -29 -6 -55 -12z"/>
<path d="M6338 7050 c4 -57 3 -61 -31 -95 -19 -19 -44 -35 -55 -35 -11 0 -40
15 -64 34 l-44 33 -49 -121 c-26 -67 -69 -168 -95 -226 -42 -94 -68 -175 -85
-265 -22 -127 -28 -166 -27 -207 2 -79 99 -515 128 -570 8 -15 39 -44 70 -63
108 -69 147 -122 259 -344 81 -163 125 -230 196 -297 80 -76 204 -143 324
-174 53 -14 81 -30 52 -30 -33 0 -16 -15 67 -62 89 -51 130 -59 177 -34 193
101 230 127 374 270 228 227 275 339 261 616 -7 149 -38 364 -66 467 -52 190
-197 391 -518 717 -159 161 -244 235 -347 301 -148 96 -302 144 -461 145 l-70
0 4 -60z m766 -391 c7 -21 4 -33 -14 -59 l-23 -32 -29 30 c-30 29 -30 30 -13
61 13 26 21 32 43 29 18 -2 30 -11 36 -29z m0 -135 c17 -16 22 -59 8 -68 -17
-10 -36 15 -37 48 -1 39 5 44 29 20z m-603 -143 c34 -27 32 -86 -5 -117 -36
-31 -51 -30 -88 6 -25 26 -29 36 -24 63 12 61 71 85 117 48z m-401 -81 c0 -10
-7 -21 -15 -24 -19 -7 -41 35 -31 60 6 16 8 16 26 -1 11 -10 20 -26 20 -35z
m237 -124 c39 -19 66 -78 66 -138 0 -84 -46 -126 -125 -114 -127 19 -179 169
-85 240 49 37 90 40 144 12z m743 -1496 c0 -5 -6 -10 -14 -10 -8 0 -18 5 -21
10 -3 6 3 10 14 10 12 0 21 -4 21 -10z"/>
<path d="M6033 7007 c-36 -25 -230 -254 -291 -343 -53 -78 -93 -160 -126 -258
-36 -108 -39 -156 -17 -225 11 -31 23 -83 27 -116 8 -72 35 -153 68 -209 44
-73 137 -161 214 -200 32 -17 33 -17 27 6 -3 13 -24 104 -47 203 -41 174 -43
185 -42 340 1 181 15 246 98 439 24 55 56 139 71 186 15 47 36 101 45 120 41
83 34 99 -27 57z"/>
<path d="M4715 6991 c-8 -17 -72 -170 -141 -342 -124 -307 -126 -313 -114
-353 6 -23 54 -118 106 -212 85 -155 118 -204 128 -193 2 2 7 35 11 74 4 38 8
72 10 75 1 3 6 32 9 65 9 76 62 454 79 560 21 127 9 232 -34 317 -23 46 -34
47 -54 9z"/>
<path d="M2535 6909 c-8 -12 14 -31 30 -26 6 2 10 10 10 18 0 17 -31 24 -40 8z"/>
<path d="M4885 6679 c4 -19 16 -59 27 -89 43 -120 58 -173 103 -390 25 -124
55 -244 66 -266 17 -36 18 -48 9 -90 -17 -72 -14 -147 10 -265 12 -57 23 -112
26 -121 5 -16 340 -218 362 -218 28 0 -36 137 -111 236 -104 138 -172 303
-221 535 -18 87 -35 136 -64 190 -23 41 -61 135 -86 209 -72 215 -103 294
-116 298 -9 3 -10 -5 -5 -29z"/>
<path d="M4816 6423 c-43 -222 -63 -380 -65 -518 -1 -82 1 -97 11 -84 20 25
49 37 106 43 29 3 62 11 73 16 20 11 24 7 31 -31 3 -17 -62 -94 -103 -123 -13
-9 -34 -16 -47 -16 -23 0 -23 0 -5 -31 53 -90 155 -177 236 -200 27 -8 28 -7
23 19 -19 91 -33 215 -41 347 -10 164 -44 352 -102 553 -31 109 -68 212 -77
212 -1 0 -19 -84 -40 -187z"/>
<path d="M5548 6549 l-67 -40 25 -57 c14 -31 29 -61 33 -65 4 -4 25 37 46 93
21 55 36 102 34 104 -2 2 -34 -14 -71 -35z"/>
<path d="M5015 6504 c34 -115 71 -215 102 -269 32 -59 67 -75 131 -64 25 5 46
10 47 12 2 1 5 29 7 63 l5 60 -47 27 c-26 15 -97 77 -158 138 l-110 112 23
-79z"/>
<path d="M10021 6341 c-17 -16 -31 -36 -31 -43 0 -14 30 -48 42 -48 7 0 31
110 25 116 -2 3 -18 -9 -36 -25z"/>
<path d="M5326 6272 c-8 -14 5 -52 19 -52 19 0 38 28 31 45 -6 16 -41 21 -50
7z"/>
<path d="M3984 6185 c-8 -54 -3 -78 46 -265 22 -80 67 -277 100 -438 68 -323
105 -464 175 -658 135 -371 314 -722 549 -1074 71 -106 100 -139 112 -127 3 3
-43 80 -101 172 -59 91 -105 168 -103 171 8 7 115 -34 190 -73 40 -21 125 -76
188 -121 178 -130 309 -214 320 -207 11 7 -19 45 -124 160 -34 37 -51 64 -45
69 17 18 9 34 -79 158 -116 161 -258 374 -312 468 -69 118 -287 570 -435 899
-56 125 -151 362 -193 483 -45 127 -72 174 -168 294 -48 60 -89 115 -91 121
-10 26 -22 12 -29 -32z m140 -281 c17 -6 22 -49 8 -58 -8 -5 -52 45 -52 59 0
7 25 6 44 -1z"/>
<path d="M5403 6183 c-22 -8 -14 -21 18 -32 18 -6 34 -11 35 -11 10 0 2 20
-12 34 -16 17 -21 18 -41 9z"/>
<path d="M3115 6146 l-29 -23 32 -17 c34 -18 72 -14 72 7 0 7 3 22 6 35 6 19
3 22 -22 22 -16 0 -42 -11 -59 -24z"/>
<path d="M5556 6142 c-11 -18 3 -77 16 -64 6 6 6 22 1 43 -6 22 -12 29 -17 21z"/>
<path d="M5212 6112 c-35 -3 -42 -6 -38 -20 3 -9 12 -51 21 -92 39 -185 117
-369 215 -505 46 -65 134 -234 151 -292 3 -8 9 -9 17 -4 32 20 44 347 18 482
-27 141 -101 265 -207 349 -49 38 -70 49 -68 33 1 -5 1 -18 0 -31 -1 -32 -21
-17 -21 16 0 45 -11 71 -28 69 -10 -1 -36 -3 -60 -5z m283 -637 l6 -30 -15 25
c-17 28 -22 60 -7 45 5 -6 12 -23 16 -40z"/>
<path d="M11320 6093 c-22 -12 -44 -35 -59 -64 -23 -43 -24 -50 -13 -88 15
-47 50 -71 107 -71 46 0 102 26 117 53 13 25 12 94 -1 130 -19 48 -95 68 -151
40z"/>
<path d="M3157 6018 c18 -18 24 -19 37 -8 25 20 19 30 -21 30 l-37 0 21 -22z"/>
<path d="M3198 5949 l-27 -10 30 -87 c48 -138 170 -375 268 -522 108 -161 191
-269 191 -249 0 44 -70 231 -130 344 -142 270 -286 529 -295 531 -6 1 -22 -2
-37 -7z"/>
<path d="M10424 5928 c-9 -14 31 -48 57 -48 27 0 23 13 -11 38 -34 25 -36 26
-46 10z"/>
<path d="M3967 5883 c-7 -31 -1 -221 7 -268 82 -444 113 -550 236 -800 98
-198 134 -261 160 -275 19 -10 18 -7 -6 47 -134 299 -202 528 -309 1043 -25
124 -55 238 -64 253 l-18 29 -6 -29z"/>
<path d="M4303 5854 c4 -10 26 -65 50 -122 44 -110 58 -114 46 -11 -8 67 -24
97 -70 130 -30 21 -32 21 -26 3z"/>
<path d="M10866 5794 c-11 -7 -16 -17 -13 -21 4 -4 15 1 24 10 22 21 14 30
-11 11z"/>
<path d="M4452 5715 c3 -26 8 -30 37 -33 36 -4 36 -4 -18 43 l-23 20 4 -30z"/>
<path d="M10983 5694 c-62 -28 -74 -55 -52 -118 18 -51 49 -68 113 -63 89 8
115 83 55 152 -47 53 -57 55 -116 29z"/>
<path d="M5760 5664 c29 -75 175 -244 250 -288 l32 -18 -7 33 c-19 94 -68 151
-210 248 -66 45 -73 47 -65 25z"/>
<path d="M4534 5562 c-14 -31 -26 -70 -26 -87 1 -58 73 -270 126 -370 58 -109
138 -238 205 -325 54 -72 248 -268 284 -286 47 -25 37 1 -49 133 -30 45 -58
93 -63 105 -5 13 -31 70 -58 128 -82 173 -161 373 -203 514 -21 68 -34 89 -85
146 -33 36 -70 74 -82 83 -21 17 -22 16 -49 -41z"/>
<path d="M5670 5583 c0 -10 9 -83 19 -163 11 -80 22 -165 25 -190 15 -127 26
-184 43 -210 19 -30 89 -83 176 -133 l48 -28 -15 33 c-7 18 -40 87 -71 153
-78 164 -91 196 -150 384 -28 91 -56 166 -63 169 -7 2 -12 -5 -12 -15z"/>
<path d="M10466 5571 c-8 -12 84 -82 97 -74 6 3 -8 23 -31 45 -42 39 -56 45
-66 29z"/>
<path d="M6096 5423 c12 -53 67 -174 99 -221 29 -43 113 -118 121 -109 6 6
-70 178 -100 227 -32 51 -82 107 -109 121 -16 9 -17 7 -11 -18z"/>
<path d="M11330 5420 l-21 -30 23 -29 c13 -17 26 -30 29 -30 3 -1 16 10 29 24
l23 24 -24 36 c-13 19 -27 35 -31 35 -4 0 -16 -14 -28 -30z"/>
<path d="M4790 5373 c0 -21 35 -113 44 -113 5 0 24 5 42 12 67 24 89 -41 30
-86 l-35 -26 15 -49 c14 -48 55 -142 117 -271 78 -162 241 -417 301 -473 36
-33 162 -107 416 -245 181 -98 240 -124 240 -105 0 15 -49 80 -184 247 -67 82
-134 166 -151 186 -16 20 -65 78 -107 129 -97 115 -124 157 -230 361 -146 282
-124 255 -273 330 -178 89 -225 111 -225 103z m619 -807 l32 -24 -38 -31 c-21
-17 -42 -31 -48 -31 -23 0 -47 28 -47 53 0 59 46 74 101 33z"/>
<path d="M5906 5285 c19 -38 63 -131 98 -206 105 -221 226 -383 333 -443 l42
-24 -10 25 c-5 13 -9 38 -9 54 0 46 -21 77 -121 174 -104 102 -150 160 -249
319 -38 61 -80 125 -94 141 -22 26 -20 20 10 -40z"/>
<path d="M11862 5337 c-33 -10 -34 -11 -27 -56 8 -54 33 -111 56 -124 21 -13
105 0 125 20 25 26 15 130 -15 154 -26 21 -85 24 -139 6z"/>
<path d="M6027 5248 c43 -51 86 -102 97 -113 18 -20 18 -20 11 5 -14 47 -43
95 -77 126 -35 33 -92 74 -102 74 -4 0 29 -42 71 -92z"/>
<path d="M5865 5211 c-10 -17 198 -412 229 -435 14 -11 28 -17 30 -15 5 5
-227 434 -244 452 -4 5 -11 4 -15 -2z"/>
<path d="M5663 5189 c-17 -17 -16 -51 1 -75 21 -28 28 -13 19 40 -6 38 -10 45
-20 35z"/>
<path d="M5210 5153 c0 -5 97 -180 169 -303 11 -19 38 -68 61 -107 22 -40 46
-73 54 -73 8 0 21 37 36 109 31 148 27 159 -93 244 -177 125 -227 154 -227
130z"/>
<path d="M10659 5097 c-53 -18 -143 -61 -200 -94 -160 -93 -265 -143 -499
-236 -237 -94 -311 -116 -394 -118 -44 -1 -60 -6 -71 -21 -7 -11 -17 -18 -22
-15 -19 12 -350 75 -423 81 -41 4 -102 9 -135 13 -101 10 -291 4 -368 -12 -91
-19 -562 -142 -602 -157 -16 -7 -46 -22 -65 -34 -25 -17 -55 -25 -110 -28 -63
-5 -184 -21 -300 -40 -14 -3 -38 -5 -55 -6 l-30 -1 50 -45 c158 -143 426 -220
860 -249 457 -30 492 -32 705 -50 41 -4 86 -8 100 -10 14 -2 54 -7 90 -10 36
-4 74 -9 85 -11 11 -3 85 -7 165 -10 l145 -6 230 51 c127 29 292 68 369 87
172 43 271 90 271 129 0 18 37 34 245 108 102 37 180 110 180 169 0 12 11 46
24 74 20 43 23 63 21 145 -4 141 -15 241 -31 271 -35 67 -93 74 -235 25z
m-299 -797 c0 -5 -4 -10 -10 -10 -5 0 -10 5 -10 10 0 6 5 10 10 10 6 0 10 -4
10 -10z"/>
<path d="M3732 4998 c15 -68 56 -129 235 -354 197 -246 311 -381 348 -409 30
-23 108 -65 113 -61 3 3 -18 52 -73 171 -97 210 -102 218 -177 290 -96 93
-437 399 -448 403 -4 2 -4 -16 2 -40z"/>
<path d="M6267 5034 c-28 -28 227 -316 345 -391 63 -40 65 -42 50 -52 -17 -10
23 -46 223 -196 94 -71 212 -163 263 -204 156 -127 222 -171 337 -227 127 -61
284 -110 470 -149 72 -14 186 -39 255 -55 157 -37 265 -47 455 -46 l150 1 65
41 c90 57 182 102 337 163 136 54 173 74 161 87 -7 6 -67 13 -263 29 -44 3
-98 8 -120 10 -22 2 -76 7 -120 10 -44 3 -96 8 -115 10 -19 2 -71 7 -115 10
-44 3 -102 8 -130 10 -27 2 -79 7 -115 9 -36 3 -96 8 -135 11 -449 37 -643 91
-864 240 -104 70 -186 102 -468 185 -85 25 -113 37 -115 51 -4 22 -332 258
-370 266 -31 6 -36 18 -13 27 24 9 19 19 -44 81 -70 70 -109 94 -124 79z"/>
<path d="M13042 5010 c-13 -6 -30 -26 -38 -46 -45 -108 101 -183 151 -78 20
44 5 94 -36 118 -30 18 -44 19 -77 6z"/>
<path d="M11423 4932 c-42 -33 -50 -124 -15 -165 24 -27 84 -42 111 -27 29 15
51 68 51 119 0 37 -4 42 -43 66 -51 29 -74 31 -104 7z"/>
<path d="M4730 4846 c0 -33 266 -516 373 -676 107 -160 269 -383 292 -402 11
-9 133 -63 270 -119 499 -202 632 -265 810 -382 85 -56 195 -140 195 -148 0
-9 -184 38 -315 80 -283 91 -551 209 -778 343 -26 15 -50 28 -53 28 -3 0 9
-20 25 -44 76 -109 213 -195 347 -217 l73 -12 -13 -25 c-13 -25 -12 -25 73
-67 48 -23 98 -46 111 -50 28 -8 90 -52 90 -63 0 -4 -69 -2 -152 5 -84 6 -168
12 -187 12 l-35 1 30 -31 c16 -17 41 -37 55 -44 38 -20 196 -31 614 -40 315
-8 373 -18 535 -93 249 -115 437 -160 740 -177 52 -3 106 -7 120 -10 14 -2 54
-7 90 -10 36 -4 159 -20 274 -36 184 -25 231 -29 215 -16 -2 2 -60 27 -129 56
-220 93 -217 92 -465 96 -231 3 -249 4 -409 36 -170 34 -226 63 -511 267 -208
149 -242 165 -385 192 -119 22 -134 31 -655 418 -254 188 -389 297 -500 406
-171 168 -225 216 -370 331 -155 123 -243 213 -312 320 -58 88 -63 94 -63 71z"/>
<path d="M5605 4798 c-36 -107 -52 -183 -44 -210 7 -25 88 -127 207 -258 l50
-55 -83 277 c-46 152 -86 281 -89 287 -13 21 -24 11 -41 -41z"/>
<path d="M5710 4768 c0 -7 11 -47 23 -88 69 -226 92 -290 101 -287 14 5 13 10
-29 198 -27 119 -39 158 -56 172 -25 20 -39 22 -39 5z"/>
<path d="M3845 4693 c16 -84 83 -173 190 -248 79 -55 93 -63 79 -44 -18 24
-138 174 -144 179 -3 3 -31 38 -64 78 -32 39 -61 72 -63 72 -3 0 -2 -17 2 -37z"/>
<path d="M5830 4690 c0 -34 63 -377 80 -431 32 -109 49 -133 150 -219 108 -92
117 -101 235 -232 90 -99 126 -132 167 -151 51 -24 178 -44 191 -30 4 3 -12
27 -36 52 -124 134 -213 271 -287 442 -17 41 -40 93 -51 117 -11 24 -33 77
-50 119 -42 106 -81 159 -141 191 -28 15 -89 52 -137 83 -93 60 -121 74 -121
59z"/>
<path d="M11254 4689 c-3 -6 -1 -16 4 -21 13 -13 45 8 36 23 -7 12 -31 11 -40
-2z"/>
<path d="M6485 4658 c5 -7 39 -54 77 -105 132 -177 333 -340 542 -439 156 -74
144 -45 -40 94 -348 262 -392 297 -464 367 -73 70 -132 114 -115 83z"/>
<path d="M6414 4606 c-18 -14 -17 -16 26 -35 24 -11 46 -18 48 -16 6 5 -38 65
-47 65 -4 0 -16 -6 -27 -14z"/>
<path d="M4373 4480 c-23 -49 -33 -17 79 -247 53 -109 64 -126 102 -148 24
-14 46 -25 49 -25 4 0 -32 78 -79 173 -48 94 -97 198 -109 231 l-22 58 -20
-42z"/>
<path d="M12268 4487 c-27 -42 -28 -56 -5 -77 12 -12 30 -19 41 -18 45 7 46
72 2 101 -23 15 -25 15 -38 -6z"/>
<path d="M6245 4440 c-7 -12 99 -270 172 -415 72 -142 122 -215 199 -292 104
-103 68 -100 393 -34 l284 58 -64 44 c-75 52 -140 92 -304 184 -132 74 -231
144 -285 200 -19 20 -60 56 -90 79 -55 43 -281 186 -293 186 -3 0 -9 -4 -12
-10z"/>
<path d="M12310 4300 c0 -39 1 -39 25 -28 27 12 32 37 13 56 -24 24 -38 13
-38 -28z"/>
<path d="M12873 4267 c-14 -23 -75 -54 -183 -92 -58 -20 -130 -50 -160 -66
-61 -33 -116 -77 -106 -86 8 -9 122 -4 172 7 74 17 155 62 208 115 52 52 105
135 87 135 -5 0 -14 -6 -18 -13z"/>
<path d="M5475 4183 c9 -16 32 -41 50 -58 118 -109 212 -187 313 -263 391
-289 615 -448 675 -478 110 -56 81 -16 -55 77 -139 95 -273 221 -368 349 -82
109 -94 119 -220 187 -58 31 -118 64 -135 73 -98 54 -263 140 -270 140 -4 0 0
-12 10 -27z"/>
<path d="M11645 4196 c-13 -10 -20 -30 -23 -73 l-4 -60 -157 -26 c-188 -32
-206 -34 -346 -42 -237 -14 -637 -10 -813 9 -67 8 -206 25 -242 31 -14 2 -55
9 -92 15 -74 11 -120 7 -187 -20 l-45 -17 74 -13 c186 -31 285 -55 425 -102
138 -47 157 -51 240 -51 57 0 106 7 134 17 26 10 121 22 245 31 110 9 219 17
241 19 171 16 251 17 269 3 19 -14 19 -15 -10 -20 -44 -9 -200 -22 -389 -33
-155 -8 -346 -31 -358 -43 -11 -11 83 -68 128 -76 23 -5 435 69 610 109 16 4
24 -4 37 -35 13 -32 27 -44 70 -64 72 -34 120 -33 153 2 14 15 25 31 25 35 0
12 85 58 149 79 33 12 59 24 56 28 -2 5 -33 9 -67 10 -35 1 -77 5 -93 10 -29
8 -28 9 20 16 177 25 284 74 370 167 30 32 55 63 55 67 0 9 -53 -2 -228 -48
l-113 -29 -10 25 c-5 13 -9 27 -9 30 0 3 -9 18 -21 34 -23 32 -62 39 -94 15z"/>
<path d="M11291 4132 c-6 -11 -6 -24 1 -35 9 -17 11 -17 28 -2 16 14 17 21 7
36 -15 24 -24 24 -36 1z"/>
<path d="M9513 3974 c-41 -11 -120 -41 -473 -185 -30 -12 -68 -35 -85 -51
l-30 -28 175 0 c181 0 222 -8 244 -47 7 -13 12 -11 31 13 l23 29 223 2 c123 1
233 2 244 2 90 -4 125 0 230 25 171 41 265 68 265 75 0 19 -286 102 -431 126
-269 45 -361 53 -416 39z"/>
<path d="M12459 3970 c-91 -11 -163 -43 -309 -136 -120 -77 -227 -134 -253
-134 -6 -1 -28 -10 -47 -21 l-35 -20 30 5 c17 3 107 15 200 26 94 12 181 23
195 26 14 2 54 7 89 10 62 7 66 9 133 72 38 36 91 91 119 124 l51 58 -54 -1
c-29 -1 -83 -5 -119 -9z"/>
<path d="M13464 3846 c-11 -29 1 -51 29 -54 21 -3 27 1 27 17 0 33 -11 51 -31
51 -11 0 -22 -6 -25 -14z"/>
<path d="M10352 3755 c-46 -13 -106 -27 -135 -30 -35 -5 -60 -15 -78 -31 -17
-16 -37 -24 -61 -24 -64 0 -100 -72 -60 -119 31 -37 62 -33 122 18 66 55 69
58 77 93 5 26 9 27 42 22 20 -3 110 -1 201 5 218 12 236 19 153 61 -68 34
-155 36 -261 5z"/>
<path d="M6200 3765 c0 -14 65 -100 104 -137 38 -36 145 -108 160 -108 12 0
-14 38 -63 92 -46 50 -201 168 -201 153z"/>
<path d="M7396 3741 c-11 -17 108 -112 189 -152 85 -41 157 -63 270 -79 92
-13 125 -12 125 2 0 19 -50 77 -80 93 -27 14 -469 145 -490 145 -5 0 -11 -4
-14 -9z"/>
<path d="M7168 3690 c-54 -10 -115 -21 -136 -23 -67 -10 -176 -35 -230 -54
l-54 -19 64 -41 c75 -48 149 -86 198 -101 53 -17 153 -26 145 -13 -3 6 -13 11
-22 11 -20 0 -83 30 -83 40 0 11 209 49 306 56 71 6 130 0 219 -22 22 -5 0 15
-75 72 -169 126 -166 125 -332 94z"/>
<path d="M12250 3683 c-14 -2 -131 -21 -261 -43 -130 -21 -264 -48 -298 -60
-59 -19 -684 -320 -678 -326 1 -1 29 4 62 12 227 54 502 81 650 64 60 -7 60
-7 175 58 210 117 410 258 410 288 0 14 -11 15 -60 7z"/>
<path d="M9455 3626 c-15 -11 -17 -18 -9 -26 8 -8 14 -7 23 4 20 24 9 39 -14
22z"/>
<path d="M8011 3563 c21 -56 64 -86 139 -98 25 -3 110 -22 190 -40 80 -18 165
-35 188 -37 l44 -3 23 63 22 62 -88 0 c-58 0 -130 9 -206 26 -127 27 -277 54
-305 54 -15 0 -16 -4 -7 -27z"/>
<path d="M6570 3543 c65 -77 174 -171 224 -195 28 -14 77 -30 108 -37 47 -10
60 -18 76 -44 12 -21 33 -37 58 -45 21 -8 77 -35 124 -62 192 -108 305 -151
514 -196 133 -28 299 -64 446 -98 73 -17 109 -20 155 -14 80 10 316 58 334 68
9 5 -30 18 -105 35 -65 15 -123 31 -127 35 -4 4 7 13 25 20 65 26 66 25 -105
167 -89 75 -171 142 -182 149 -18 11 -73 18 -325 40 -36 3 -121 12 -190 19
-72 8 -176 11 -245 8 -311 -13 -402 6 -555 120 -70 52 -109 66 -194 67 l-68 0
32 -37z"/>
<path d="M10810 3541 c-171 -35 -212 -49 -335 -116 -71 -39 -93 -55 -75 -55
48 0 203 31 319 65 113 33 359 119 369 130 15 15 -161 0 -278 -24z"/>
<path d="M5024 3498 c-10 -16 139 -154 232 -215 101 -65 219 -121 334 -157 70
-23 206 -56 226 -56 3 0 -4 13 -15 29 -23 32 -28 34 -194 86 -193 61 -339 142
-482 269 -45 41 -91 61 -101 44z"/>
<path d="M7757 3479 c14 -12 53 -21 53 -11 0 5 -14 12 -30 14 -17 3 -27 1 -23
-3z"/>
<path d="M9435 3479 c-22 -5 -74 -20 -115 -34 -41 -13 -105 -29 -142 -36 -38
-6 -68 -14 -68 -18 0 -10 280 -98 353 -112 34 -6 151 -9 280 -7 l222 4 115 46
c63 26 145 54 182 63 73 19 189 73 196 92 4 15 -959 17 -1023 2z"/>
<path d="M7984 3435 c11 -8 31 -15 45 -15 34 0 15 16 -29 24 -33 7 -34 6 -16
-9z"/>
<path d="M8110 3422 c0 -9 73 -99 106 -129 14 -13 57 -49 97 -80 40 -32 74
-60 77 -63 18 -18 90 -69 115 -82 23 -12 89 -17 295 -22 146 -4 294 -7 330 -6
137 2 420 43 420 61 0 25 -100 102 -150 117 -19 6 -107 13 -195 16 -178 6
-174 6 -410 47 -94 16 -178 29 -188 29 -9 0 -30 -13 -45 -30 -16 -16 -33 -30
-37 -30 -4 0 -5 20 -2 45 6 40 4 45 -16 50 -196 46 -371 85 -382 85 -8 0 -15
-3 -15 -8z"/>
<path d="M8790 3340 c-19 -4 -29 -8 -22 -9 7 0 74 -12 150 -26 142 -27 369
-44 342 -27 -8 6 -51 23 -95 38 -70 24 -97 28 -210 29 -71 1 -146 -1 -165 -5z"/>
<path d="M10155 3279 c-86 -18 -265 -85 -265 -100 0 -13 -4 -14 212 46 109 30
204 55 212 55 8 0 17 3 20 8 8 13 -95 8 -179 -9z"/>
<path d="M11485 3289 c-199 -18 -313 -42 -511 -108 -223 -75 -420 -157 -550
-228 -71 -40 -142 -75 -159 -79 -16 -4 -77 -8 -135 -9 -73 0 -128 -7 -180 -22
-42 -11 -125 -23 -190 -27 -63 -4 -144 -13 -180 -20 -36 -6 -77 -11 -90 -10
-49 3 -195 16 -210 19 -8 2 -73 6 -145 10 -140 7 -223 22 -297 54 -25 11 -61
22 -79 25 -33 5 -416 -66 -446 -83 -13 -7 -5 -15 43 -39 189 -95 357 -143 559
-157 44 -3 100 -8 125 -10 25 -2 90 -7 145 -10 55 -4 106 -8 114 -11 32 -11
306 -3 414 11 285 37 467 100 1004 344 320 145 422 183 613 230 145 34 315 96
318 114 4 19 -12 20 -163 6z"/>
<path d="M9508 3219 c-16 -10 78 -80 109 -81 23 0 208 64 221 77 7 7 -319 11
-330 4z"/>
<path d="M6990 3180 c0 -13 145 -122 247 -186 46 -29 112 -62 146 -73 190 -63
482 -100 582 -75 l28 7 -25 13 c-14 7 -74 20 -134 29 -290 43 -514 118 -693
232 -75 48 -151 75 -151 53z"/>
<path d="M10101 3064 c-25 -32 -26 -37 -3 -56 15 -14 21 -15 55 -1 43 18 45
24 15 58 -27 32 -41 32 -67 -1z"/>
<path d="M10340 2989 c-94 -19 -128 -31 -155 -55 l-28 -24 24 -1 c77 -3 147
22 191 68 12 13 20 23 17 22 -2 -1 -24 -5 -49 -10z"/>
<path d="M10000 2931 c-14 -4 -20 -10 -15 -13 14 -8 65 2 65 13 0 10 -14 10
-50 0z"/>
<path d="M9790 2888 c-58 -18 -95 -20 -365 -20 -226 0 -285 -3 -240 -10 117
-19 611 -14 678 7 7 2 25 6 42 10 29 6 29 7 11 21 -25 18 -45 16 -126 -8z"/>
<path d="M11393 2894 c-3 -8 1 -23 10 -31 13 -14 19 -14 32 -3 14 12 14 15 -1
31 -21 23 -33 24 -41 3z"/>
<path d="M11753 2681 c-10 -16 -8 -22 7 -36 18 -17 19 -16 17 19 -2 41 -7 44
-24 17z"/>
<path d="M11623 2559 c-48 -18 -47 -63 1 -108 29 -27 46 -20 66 28 20 49 -21
98 -67 80z"/>
<path d="M10559 2389 c-20 -20 -25 -55 -10 -77 13 -21 44 -18 85 7 l37 23 -26
28 c-36 37 -62 43 -86 19z"/>
</g>
</svg>
